<svg id="Layer_1" data-name="Layer 1" xmlns="http://www.w3.org/2000/svg" xmlns:xlink="http://www.w3.org/1999/xlink" viewBox="0 0 523.82 450.24"><defs><style>.cls-1,.cls-10,.cls-11,.cls-4,.cls-5,.cls-7,.cls-8,.cls-9{fill:none;}.cls-2{clip-path:url(#clip-path);}.cls-3{fill:#fff;}.cls-4{stroke:#dfdfdf;}.cls-10,.cls-11,.cls-4,.cls-5,.cls-8,.cls-9{stroke-linejoin:round;}.cls-11,.cls-4,.cls-5{stroke-width:0.5px;}.cls-11,.cls-5{stroke:#262626;}.cls-5{stroke-linecap:square;}.cls-6{fill:#262626;}.cls-7{stroke:#f0f;stroke-linejoin:bevel;stroke-dasharray:10 6;}.cls-8{stroke:blue;stroke-width:2px;}.cls-9{stroke:red;}.cls-10{stroke:lime;}</style><clipPath id="clip-path" transform="translate(-171.19 -69.56)"><polygon class="cls-1" points="245.04 472.87 564.18 495.64 525.49 137.78 217.87 228.99 245.04 472.87"/></clipPath></defs><title>13_force_average_perspective</title><g class="cls-2"><polygon class="cls-3" points="28.34 408.41 523.82 450.24 475.75 0 0 155.16 28.34 408.41"/></g><path class="cls-4" d="M261.37,453,236.05,225.32m61.5,229.16L271,215.05m66.65,241.09L309.78,203.65M382.39,458,353,190.94m79.56,269.12-31-283.39m87.73,285.74L456.43,160.54M553.9,465.08,519,142.16M551.1,439.23l-291.76-4.49m288.17-28.68-290.77,5.28m287.18-38.47L254.13,387.93m286.2-48.27-288.8,24.85m285.2-58.08L248.92,341.08m284.21-67.91L246.31,317.64m283.22-77.75L243.71,294.18m282.22-87.59L241.1,270.71m281.23-97.44-283.85,74" transform="translate(-171.19 -69.56)"/><path class="cls-5" d="M261.37,453,553.9,465.08M236.05,225.32,519,142.16M261.37,453l-.25-2.28m36.43,3.77-.27-2.39m40.38,4.05-.28-2.52m45,4.37-.29-2.67m50.48,4.74-.31-2.82m57,5.17-.32-3m64.93,5.68-.35-3.22M236.05,225.32l.25,2.28M271,215.05l.26,2.4m38.51-13.8.28,2.53m43-15.24.3,2.67m48.24-16.94.31,2.84m54.56-19,.33,3M519,142.16l.35,3.24" transform="translate(-171.19 -69.56)"/><path class="cls-6" d="M262.3,461.35a1.2,1.2,0,0,1-1.08-.72,4.69,4.69,0,0,1-.44-1.6,5.7,5.7,0,0,1,0-1.08,1.56,1.56,0,0,1,.29-.84.81.81,0,0,1,.75-.32,1.2,1.2,0,0,1,.68.25,1.74,1.74,0,0,1,.44.56,3.09,3.09,0,0,1,.26.74,5.19,5.19,0,0,1,.14.82,5.47,5.47,0,0,1,0,1.06,1.64,1.64,0,0,1-.28.83.82.82,0,0,1-.76.3Zm0-.17a.44.44,0,0,0,.46-.36,2.36,2.36,0,0,0,.11-.82c0-.3,0-.63-.07-1s-.08-.65-.14-.93a2.46,2.46,0,0,0-.29-.77.62.62,0,0,0-.54-.37.45.45,0,0,0-.47.32,2,2,0,0,0-.11.75,7.72,7.72,0,0,0,.06.92q0,.36.09.69a6,6,0,0,0,.16.68,1.87,1.87,0,0,0,.3.6.59.59,0,0,0,.44.26" transform="translate(-171.19 -69.56)"/><path class="cls-6" d="M295.93,463.14a1.31,1.31,0,0,1-1.17-.76,4.6,4.6,0,0,1-.48-1.68,6.21,6.21,0,0,1,0-1.13,1.67,1.67,0,0,1,.32-.88,1,1,0,0,1,.84-.32,1.21,1.21,0,0,1,.73.25,1.69,1.69,0,0,1,.49.6,3.22,3.22,0,0,1,.29.77,7.53,7.53,0,0,1,.14.85,5.3,5.3,0,0,1,0,1.12,1.59,1.59,0,0,1-.31.86.91.91,0,0,1-.84.32Zm0-.18a.48.48,0,0,0,.51-.37,2.19,2.19,0,0,0,.13-.86c0-.32,0-.66-.07-1s-.09-.68-.15-1a2.57,2.57,0,0,0-.31-.81.72.72,0,0,0-.6-.38.49.49,0,0,0-.51.34,1.94,1.94,0,0,0-.13.78,8.82,8.82,0,0,0,.06,1c0,.25.06.49.1.72a4,4,0,0,0,.17.71,2.07,2.07,0,0,0,.32.63.66.66,0,0,0,.48.27" transform="translate(-171.19 -69.56)"/><path class="cls-6" d="M298.1,462.73a.32.32,0,0,1,.08-.27.3.3,0,0,1,.24-.1.7.7,0,0,1,.19.06.54.54,0,0,1,.15.15.49.49,0,0,1,.07.19.36.36,0,0,1-.08.27.33.33,0,0,1-.24.1.43.43,0,0,1-.27-.13.45.45,0,0,1-.14-.27" transform="translate(-171.19 -69.56)"/><path class="cls-6" d="M299.93,462.41a1.36,1.36,0,0,0,.25.39,1.21,1.21,0,0,0,.36.28,1.09,1.09,0,0,0,.42.11.56.56,0,0,0,.63-.36,2.13,2.13,0,0,0,.08-.94q0-.25-.06-.42c0-.11-.05-.21-.08-.32a1.3,1.3,0,0,0-.27-.43.57.57,0,0,0-.39-.21.9.9,0,0,0-.39.05,1.25,1.25,0,0,0-.24.15,1,1,0,0,0-.16.2c0,.07-.07.1-.09.1h-.07l-.05,0a.05.05,0,0,1,0,0l-.26-2.33,0,0,0,0h0a2.48,2.48,0,0,0,1,.27,2,2,0,0,0,.94-.18h.07l0,0v.07s0,0,0,0a1.38,1.38,0,0,1-.52.47,1.51,1.51,0,0,1-.7.14,2.33,2.33,0,0,1-.55-.11l.15,1.33a1.39,1.39,0,0,1,.36-.25.94.94,0,0,1,.44-.06,1.19,1.19,0,0,1,.69.25,1.71,1.71,0,0,1,.52.61,2,2,0,0,1,.24.73,1.43,1.43,0,0,1-.12.78,1.18,1.18,0,0,1-.47.54,1.28,1.28,0,0,1-.72.17,1.19,1.19,0,0,1-.63-.21,1.53,1.53,0,0,1-.49-.49,1.64,1.64,0,0,1-.23-.65.31.31,0,0,1,.07-.26.28.28,0,0,1,.24-.08.36.36,0,0,1,.25.11.38.38,0,0,1,.13.26.31.31,0,0,1-.07.25.32.32,0,0,1-.23.09h-.1" transform="translate(-171.19 -69.56)"/><path class="cls-6" d="M337.5,465.19l0-.26c.61,0,.92,0,.9-.18l-.43-3.86a2,2,0,0,1-.94.14l0-.25a1.63,1.63,0,0,0,1.32-.41h.1l.05,0,0,0,.48,4.35c0,.15.33.24.95.28l0,.26-2.43-.13" transform="translate(-171.19 -69.56)"/><path class="cls-6" d="M378.94,467.39l0-.28c.68,0,1,0,1-.19l-.45-4.06a2.47,2.47,0,0,1-1,.14l0-.26a1.84,1.84,0,0,0,1.46-.43H380a.07.07,0,0,1,.06,0s0,0,0,0l.5,4.58c0,.16.37.26,1.06.29l0,.28-2.7-.14" transform="translate(-171.19 -69.56)"/><path class="cls-6" d="M383,467.18a.36.36,0,0,1,.1-.3.42.42,0,0,1,.31-.1.53.53,0,0,1,.23.06.52.52,0,0,1,.19.17.58.58,0,0,1,.08.22.33.33,0,0,1-.11.29.4.4,0,0,1-.3.11.55.55,0,0,1-.33-.15.46.46,0,0,1-.17-.3" transform="translate(-171.19 -69.56)"/><path class="cls-6" d="M385.23,466.84a1.39,1.39,0,0,0,.3.43,1.81,1.81,0,0,0,.46.32,1.66,1.66,0,0,0,.52.13.71.71,0,0,0,.78-.4,2,2,0,0,0,.11-1.05c0-.19,0-.34-.06-.46a2.11,2.11,0,0,0-.09-.36,1.41,1.41,0,0,0-.33-.49.75.75,0,0,0-.49-.23,1.17,1.17,0,0,0-.48.06,1,1,0,0,0-.31.16,2.09,2.09,0,0,0-.2.22c-.05.07-.09.11-.11.11h-.09l-.06,0,0-.05-.28-2.59s0,0,0,0a.06.06,0,0,1,.05,0h0a3.22,3.22,0,0,0,1.21.3,2.74,2.74,0,0,0,1.18-.19h0l.05,0s0,0,0,.05v.07s0,0,0,0a1.59,1.59,0,0,1-.66.51,2,2,0,0,1-.87.16,2.94,2.94,0,0,1-.69-.12l.16,1.47a1.76,1.76,0,0,1,.46-.27,1.27,1.27,0,0,1,.55-.07,1.77,1.77,0,0,1,.86.29,2.15,2.15,0,0,1,.63.68,2,2,0,0,1,.29.82,1.45,1.45,0,0,1-.15.86,1.41,1.41,0,0,1-.61.6,1.56,1.56,0,0,1-.89.19,1.72,1.72,0,0,1-.79-.23,2,2,0,0,1-.6-.56,1.67,1.67,0,0,1-.27-.72.34.34,0,0,1,.09-.29.38.38,0,0,1,.3-.09.46.46,0,0,1,.31.13.41.41,0,0,1,.16.29.33.33,0,0,1-.09.27.44.44,0,0,1-.3.1h-.12" transform="translate(-171.19 -69.56)"/><path class="cls-6" d="M431.83,470.19l0-.22a.11.11,0,0,1,0-.05l1.3-1.34.47-.49a3.59,3.59,0,0,0,.35-.47,2.12,2.12,0,0,0,.26-.55,1.55,1.55,0,0,0,.05-.61,1.71,1.71,0,0,0-.69-1.17,1.34,1.34,0,0,0-.69-.22,1.16,1.16,0,0,0-.72.19.9.9,0,0,0-.39.53h.1a.67.67,0,0,1,.37.14.46.46,0,0,1,.18.32.34.34,0,0,1-.11.32.44.44,0,0,1-.35.11.61.61,0,0,1-.37-.15.5.5,0,0,1-.18-.33,1.21,1.21,0,0,1,.06-.57,1.23,1.23,0,0,1,.33-.46,1.42,1.42,0,0,1,.52-.3,2,2,0,0,1,.65-.08,2.74,2.74,0,0,1,1,.25,2.27,2.27,0,0,1,.79.6,1.54,1.54,0,0,1,.36.86,1.3,1.3,0,0,1-.1.68,1.85,1.85,0,0,1-.4.56,8.12,8.12,0,0,1-.64.57l-.53.41-1,.84.89.05,1.11.05a.5.5,0,0,0,.61-.76l.28,0-.12,1.46-3.46-.19" transform="translate(-171.19 -69.56)"/><path class="cls-6" d="M484.28,473l0-.23a.07.07,0,0,1,0-.05l1.47-1.42.53-.52a4.17,4.17,0,0,0,.4-.5,2.14,2.14,0,0,0,.3-.58A1.76,1.76,0,0,0,487,469a1.84,1.84,0,0,0-.24-.69,1.64,1.64,0,0,0-.53-.55,1.52,1.52,0,0,0-.78-.23,1.34,1.34,0,0,0-.8.19,1,1,0,0,0-.45.56h.11a.77.77,0,0,1,.43.15.49.49,0,0,1,.2.34.36.36,0,0,1-.13.33.51.51,0,0,1-.39.12.71.71,0,0,1-.43-.16.55.55,0,0,1-.2-.35,1.33,1.33,0,0,1,.08-.6,1.25,1.25,0,0,1,.37-.49,1.46,1.46,0,0,1,.59-.31,2.21,2.21,0,0,1,.74-.09,3.17,3.17,0,0,1,1.14.27,2.56,2.56,0,0,1,.89.63,1.6,1.6,0,0,1,.4.92,1.25,1.25,0,0,1-.12.72,2.37,2.37,0,0,1-.45.59,7.59,7.59,0,0,1-.73.6l-.6.43-1.07.9,1,.05,1.26.06a1.83,1.83,0,0,0,.51,0,1.57,1.57,0,0,0,.18-.79h.31l-.14,1.55-3.89-.21" transform="translate(-171.19 -69.56)"/><path class="cls-6" d="M489.85,472.79a.35.35,0,0,1,.14-.34.55.55,0,0,1,.39-.11.63.63,0,0,1,.29.08.57.57,0,0,1,.24.19.5.5,0,0,1,.1.24.36.36,0,0,1-.14.33.51.51,0,0,1-.39.12.7.7,0,0,1-.42-.17.47.47,0,0,1-.21-.34" transform="translate(-171.19 -69.56)"/><path class="cls-6" d="M492.77,472.42a1.75,1.75,0,0,0,.38.49,2,2,0,0,0,.58.36,2,2,0,0,0,.66.15,1,1,0,0,0,1-.44,2.1,2.1,0,0,0,.16-1.18c0-.21-.05-.39-.07-.53s-.07-.27-.11-.4a1.69,1.69,0,0,0-.41-.56,1,1,0,0,0-.63-.26,1.92,1.92,0,0,0-.62.06,1.42,1.42,0,0,0-.39.18,3.08,3.08,0,0,0-.26.24c-.07.09-.12.14-.14.14h-.12l-.07,0s-.05,0-.05-.06l-.32-2.93s0,0,0-.05a.09.09,0,0,1,.07,0h0a4.59,4.59,0,0,0,1.55.34,4,4,0,0,0,1.51-.2h0a.11.11,0,0,1,.07,0,.07.07,0,0,1,0,.05v.08s0,0,0,0a2.08,2.08,0,0,1-.85.58,2.82,2.82,0,0,1-1.12.16,4,4,0,0,1-.87-.14l.18,1.67a2.6,2.6,0,0,1,.59-.31,1.79,1.79,0,0,1,.69-.06,2.28,2.28,0,0,1,1.11.33,2.42,2.42,0,0,1,.79.77,2.12,2.12,0,0,1,.36.93,1.53,1.53,0,0,1-.21,1,1.8,1.8,0,0,1-.79.67,2.39,2.39,0,0,1-1.15.21,2.48,2.48,0,0,1-1-.27,2.13,2.13,0,0,1-.75-.64,1.59,1.59,0,0,1-.34-.81.33.33,0,0,1,.12-.33.57.57,0,0,1,.38-.1.7.7,0,0,1,.4.15.49.49,0,0,1,.2.33.33.33,0,0,1-.13.3.46.46,0,0,1-.37.11h-.16" transform="translate(-171.19 -69.56)"/><path class="cls-6" d="M553.21,475.91a2.34,2.34,0,0,0,.81.51,3.63,3.63,0,0,0,1.05.21.89.89,0,0,0,.94-.41,1.67,1.67,0,0,0,.18-1.05,2.64,2.64,0,0,0-.11-.53,2,2,0,0,0-.26-.51,1.41,1.41,0,0,0-.45-.39,1.6,1.6,0,0,0-.65-.16l-.79,0c-.08,0-.12,0-.13-.09v-.09c0-.05,0-.07.11-.07h.66a.93.93,0,0,0,.67-.21,1.23,1.23,0,0,0,.35-.59,1.72,1.72,0,0,0,.06-.67,1.2,1.2,0,0,0-.35-.74,1.25,1.25,0,0,0-.86-.34,2.74,2.74,0,0,0-.87.1,1.35,1.35,0,0,0-.62.37H553a.78.78,0,0,1,.48.17.49.49,0,0,1,.21.36.36.36,0,0,1-.14.34.62.62,0,0,1-.44.12.71.71,0,0,1-.47-.17.49.49,0,0,1-.23-.36.8.8,0,0,1,.23-.68,1.59,1.59,0,0,1,.76-.41,2.9,2.9,0,0,1,1-.11,3.9,3.9,0,0,1,.78.12,3.68,3.68,0,0,1,.77.27,2.16,2.16,0,0,1,.58.44,1,1,0,0,1,.27.57,1.1,1.1,0,0,1-.15.72,1.48,1.48,0,0,1-.56.55,2.57,2.57,0,0,1-.84.32,3.87,3.87,0,0,1,1,.35,2.85,2.85,0,0,1,.84.63,1.4,1.4,0,0,1,.37.79,1.2,1.2,0,0,1-.27.93,2,2,0,0,1-.89.6,3.16,3.16,0,0,1-1.24.17,4.5,4.5,0,0,1-1.16-.23,2.77,2.77,0,0,1-1-.55,1.22,1.22,0,0,1-.44-.82.38.38,0,0,1,.15-.37.68.68,0,0,1,.49-.13.94.94,0,0,1,.36.08.67.67,0,0,1,.28.21.65.65,0,0,1,.11.29.4.4,0,0,1-.16.37.7.7,0,0,1-.48.13h0" transform="translate(-171.19 -69.56)"/><path class="cls-6" d="M371.18,476.49l-.26-2.32-.74,0,0-.22a.75.75,0,0,0,.8-.46,2.2,2.2,0,0,0,.15-1.09h.25l.17,1.54,1.25.08,0,.3-1.24-.08.25,2.31a1.73,1.73,0,0,0,.19.62.55.55,0,0,0,.47.29.38.38,0,0,0,.41-.25,1.14,1.14,0,0,0,.06-.59l-.05-.5.26,0,.06.51a1.3,1.3,0,0,1,0,.52.85.85,0,0,1-.26.4.66.66,0,0,1-.47.14,1.38,1.38,0,0,1-.87-.36,1.33,1.33,0,0,1-.4-.83" transform="translate(-171.19 -69.56)"/><path class="cls-6" d="M374.11,477.69l0-.3a2,2,0,0,0,.5,0,.18.18,0,0,0,.17-.21l-.26-2.3a.53.53,0,0,0-.17-.41,1.38,1.38,0,0,0-.54-.11l0-.3H375l.35,3.17a.27.27,0,0,0,.19.24,2.36,2.36,0,0,0,.46.07l0,.3-1.94-.13Zm-.19-5.16a.39.39,0,0,1,.11-.32.41.41,0,0,1,.32-.11.63.63,0,0,1,.26.07.61.61,0,0,1,.2.19.5.5,0,0,1,.09.23.39.39,0,0,1-.11.31.41.41,0,0,1-.34.12.59.59,0,0,1-.35-.16.6.6,0,0,1-.18-.33" transform="translate(-171.19 -69.56)"/><path class="cls-6" d="M376.58,477.85l0-.3a2.75,2.75,0,0,0,.5,0,.17.17,0,0,0,.17-.21L377,475a.75.75,0,0,0-.11-.33.37.37,0,0,0-.22-.14,3,3,0,0,0-.43-.05l0-.3h1.29l.09.84a1.06,1.06,0,0,1,.47-.57,1.26,1.26,0,0,1,.74-.19,1.32,1.32,0,0,1,1.31.88,1.06,1.06,0,0,1,.47-.55,1.25,1.25,0,0,1,.74-.17,1.85,1.85,0,0,1,.71.17,1.11,1.11,0,0,1,.47.41,1.51,1.51,0,0,1,.21.65l.23,2a.25.25,0,0,0,.22.23,2.28,2.28,0,0,0,.52.08l0,.3-2.08-.13,0-.31a2,2,0,0,0,.5,0q.19,0,.18-.21l-.22-2a1.81,1.81,0,0,0-.21-.7.66.66,0,0,0-.56-.3.94.94,0,0,0-.82.34,1.13,1.13,0,0,0-.24.88l.18,1.68a.27.27,0,0,0,.22.24,3.12,3.12,0,0,0,.52.07l0,.31-2.07-.14,0-.3a2.61,2.61,0,0,0,.5,0q.19,0,.18-.21l-.23-2a1.65,1.65,0,0,0-.2-.69.62.62,0,0,0-.55-.3.91.91,0,0,0-.82.34,1.15,1.15,0,0,0-.23.87l.18,1.68a.26.26,0,0,0,.22.23,2.09,2.09,0,0,0,.5.08l0,.3-2.06-.14" transform="translate(-171.19 -69.56)"/><path class="cls-6" d="M386.13,478.58a2.25,2.25,0,0,1-1.05-.34,2.52,2.52,0,0,1-.81-.78,2.19,2.19,0,0,1-.37-1,1.85,1.85,0,0,1,.13-.94,1.53,1.53,0,0,1,1.54-.91,2.17,2.17,0,0,1,.75.18,2,2,0,0,1,.55.4,2,2,0,0,1,.36.58,2.26,2.26,0,0,1,.19.7c0,.07,0,.11-.08.1l-2.66-.17v.1a2.71,2.71,0,0,0,.44,1.24,1.31,1.31,0,0,0,1.06.57,1.08,1.08,0,0,0,.51-.08,1.1,1.1,0,0,0,.38-.3,1,1,0,0,0,.19-.43l0,0,.05,0h.08a.1.1,0,0,1,.1.11,1.07,1.07,0,0,1-.47.76,1.39,1.39,0,0,1-.93.25Zm-1.46-2.36,2.08.13a2.65,2.65,0,0,0-.16-.66,1.43,1.43,0,0,0-.38-.57,1,1,0,0,0-.62-.26.73.73,0,0,0-.75.41,1.62,1.62,0,0,0-.17,1" transform="translate(-171.19 -69.56)"/><polyline class="cls-6" points="220.63 411.44 219.68 402.81 220.95 402.89 220.99 403.23 220.09 403.18 220.96 411.12 221.86 411.18 221.9 411.52 220.63 411.44"/><path class="cls-6" d="M393.38,479l-.16-1.41c0-.05,0-.06.09-.06h.1a.1.1,0,0,1,.09.06c.26.85.73,1.29,1.4,1.34a1.24,1.24,0,0,0,.72-.14.52.52,0,0,0,.23-.56.71.71,0,0,0-.28-.48,1.53,1.53,0,0,0-.58-.3l-.64-.16a2.27,2.27,0,0,1-.6-.23,1.56,1.56,0,0,1-.46-.38.9.9,0,0,1-.22-.52.74.74,0,0,1,.15-.6,1,1,0,0,1,.52-.32,2.24,2.24,0,0,1,.75-.06,1.59,1.59,0,0,1,.85.3l.26-.21s0,0,0,0h.07a.05.05,0,0,1,.05,0l0,.05.12,1.13c0,.06,0,.09-.07.09h-.11q-.08,0-.09-.09a1.17,1.17,0,0,0-.35-.74,1.16,1.16,0,0,0-.79-.32,1.58,1.58,0,0,0-.72.09.41.41,0,0,0-.25.48.59.59,0,0,0,.26.41,1.63,1.63,0,0,0,.55.25l.64.15a2.43,2.43,0,0,1,.62.27,1.87,1.87,0,0,1,.49.43,1.18,1.18,0,0,1,.22.57,1.24,1.24,0,0,1-.05.53.84.84,0,0,1-.28.36,1.18,1.18,0,0,1-.47.2,2.29,2.29,0,0,1-.59,0,1.75,1.75,0,0,1-1.05-.43l-.3.32s0,0,0,0h0c-.06,0-.1,0-.1-.08" transform="translate(-171.19 -69.56)"/><polyline class="cls-6" points="226.01 411.81 225.98 411.46 226.9 411.52 226.02 403.53 225.1 403.47 225.06 403.13 226.36 403.2 227.31 411.89 226.01 411.81"/><path class="cls-5" d="M261.37,453,236.05,225.32M553.9,465.08,519,142.16M259.34,434.74l2.06,0m-4.66-23.43,2.05,0m-4.66-23.38,2.05-.1m-4.65-23.32,2-.17m-4.65-23.26,2-.25m-4.65-23.19,2-.32m-4.63-23.14,2-.38m-4.63-23.09,2-.45m-4.63-23,2-.52M551.1,439.23l-4.12-.07m.53-33.1-4.1.08m.51-33.27-4.09.22m.5-33.43-4.08.35m.48-33.58-4.06.49m.46-33.75-4,.63m.45-33.91-4,.77m.43-34.07-4,.91m.42-34.23-4,1" transform="translate(-171.19 -69.56)"/><path class="cls-6" d="M255.65,436.41a1.14,1.14,0,0,1-1.07-.68,4.58,4.58,0,0,1-.43-1.58,5,5,0,0,1,0-1.08,1.54,1.54,0,0,1,.28-.85.82.82,0,0,1,.74-.34,1.09,1.09,0,0,1,.67.21,1.64,1.64,0,0,1,.44.56,3.23,3.23,0,0,1,.26.72,6.85,6.85,0,0,1,.13.81,5.47,5.47,0,0,1,0,1.06,1.71,1.71,0,0,1-.28.84.79.79,0,0,1-.74.33Zm0-.17a.45.45,0,0,0,.45-.37,2.45,2.45,0,0,0,.11-.83c0-.3,0-.62-.07-1s-.09-.64-.14-.92a2.31,2.31,0,0,0-.29-.76.6.6,0,0,0-.53-.35.46.46,0,0,0-.46.34,2,2,0,0,0-.11.75,7.85,7.85,0,0,0,.06.92c0,.24.06.47.09.68a6,6,0,0,0,.16.68,1.81,1.81,0,0,0,.29.59.6.6,0,0,0,.44.24" transform="translate(-171.19 -69.56)"/><path class="cls-6" d="M249.17,413.06l0-.24c.49,0,.73-.08.71-.21l-.38-3.45a1.59,1.59,0,0,1-.75.18l0-.23a1.24,1.24,0,0,0,1-.44h.12s0,0,0,0l.43,3.88c0,.14.27.2.76.19l0,.24-1.92,0" transform="translate(-171.19 -69.56)"/><path class="cls-6" d="M253.06,413.14a1.09,1.09,0,0,1-1.06-.65,4.46,4.46,0,0,1-.44-1.57,6.67,6.67,0,0,1,0-1.08,1.83,1.83,0,0,1,.28-.87.85.85,0,0,1,.74-.36,1.08,1.08,0,0,1,.67.19,1.68,1.68,0,0,1,.44.54,3.22,3.22,0,0,1,.25.72,6.84,6.84,0,0,1,.14.81,5.53,5.53,0,0,1,0,1.07,1.61,1.61,0,0,1-.27.84.81.81,0,0,1-.74.36Zm0-.17a.47.47,0,0,0,.45-.39,2.45,2.45,0,0,0,.11-.83c0-.3,0-.63-.07-1s-.09-.65-.14-.93a2.34,2.34,0,0,0-.29-.75.6.6,0,0,0-.53-.33.48.48,0,0,0-.46.36,2.06,2.06,0,0,0-.11.76c0,.27,0,.58.07.92s.05.46.09.68a4.27,4.27,0,0,0,.15.67,1.85,1.85,0,0,0,.29.58.54.54,0,0,0,.44.23" transform="translate(-171.19 -69.56)"/><path class="cls-6" d="M246.34,389.92l0-.17a.06.06,0,0,1,0,0l.79-1.18c.11-.17.21-.31.28-.43s.14-.25.21-.4a2.14,2.14,0,0,0,.15-.47,1.6,1.6,0,0,0,0-.49,1.5,1.5,0,0,0-.15-.51,1,1,0,0,0-.31-.38.65.65,0,0,0-.43-.13.71.71,0,0,0-.45.2.88.88,0,0,0-.23.46h.06a.31.31,0,0,1,.24.08.37.37,0,0,1,.12.25.33.33,0,0,1-.07.26.28.28,0,0,1-.21.12.33.33,0,0,1-.24-.1.39.39,0,0,1-.12-.25,1.17,1.17,0,0,1,0-.46,1.14,1.14,0,0,1,.19-.4,1.1,1.1,0,0,1,.33-.28,1.08,1.08,0,0,1,.4-.11,1.33,1.33,0,0,1,.65.13,1.19,1.19,0,0,1,.5.42,1.36,1.36,0,0,1,.25.67,1.43,1.43,0,0,1-.05.55,1.8,1.8,0,0,1-.24.48,5.85,5.85,0,0,1-.39.51l-.32.36-.58.76.56,0,.7,0a.82.82,0,0,0,.28,0,1.69,1.69,0,0,0,.08-.62h.17l0,1.19-2.17.1" transform="translate(-171.19 -69.56)"/><path class="cls-6" d="M250.47,389.86a1.05,1.05,0,0,1-1.06-.61,4.68,4.68,0,0,1-.44-1.57,5.73,5.73,0,0,1,0-1.09,1.72,1.72,0,0,1,.27-.87.89.89,0,0,1,.74-.4,1,1,0,0,1,.66.18,1.44,1.44,0,0,1,.44.53,3.15,3.15,0,0,1,.26.71c.06.26.1.53.14.81a5.52,5.52,0,0,1,0,1.07,1.72,1.72,0,0,1-.27.86.86.86,0,0,1-.74.38Zm0-.17a.49.49,0,0,0,.45-.4,2.55,2.55,0,0,0,.11-.84c0-.31,0-.63-.08-1s-.08-.64-.13-.92a2.26,2.26,0,0,0-.29-.75.56.56,0,0,0-.53-.31.49.49,0,0,0-.45.37,2.15,2.15,0,0,0-.12.77c0,.28,0,.58.07.92s.06.47.09.68a3.69,3.69,0,0,0,.16.68,1.53,1.53,0,0,0,.29.57.49.49,0,0,0,.43.21" transform="translate(-171.19 -69.56)"/><path class="cls-6" d="M244,366.25a1,1,0,0,0,.41.29,1.1,1.1,0,0,0,.51.08.49.49,0,0,0,.44-.37,1.89,1.89,0,0,0,.06-.76,2.29,2.29,0,0,0-.07-.36,1.35,1.35,0,0,0-.14-.35.73.73,0,0,0-.22-.24.56.56,0,0,0-.32-.06l-.38,0s-.06,0-.06-.06v-.06s0-.05.05-.05l.31-.06a.39.39,0,0,0,.32-.21,1.15,1.15,0,0,0,.16-.44,2.48,2.48,0,0,0,0-.47,1.07,1.07,0,0,0-.19-.51.48.48,0,0,0-.42-.17,1,1,0,0,0-.42.14.78.78,0,0,0-.29.31h0a.31.31,0,0,1,.24.08.38.38,0,0,1,.11.24.36.36,0,0,1-.06.25.27.27,0,0,1-.21.13.29.29,0,0,1-.23-.09.35.35,0,0,1-.12-.24.76.76,0,0,1,.1-.5.91.91,0,0,1,.35-.35,1,1,0,0,1,.47-.15,1.59,1.59,0,0,1,.37,0,1.24,1.24,0,0,1,.38.14,1,1,0,0,1,.29.26.77.77,0,0,1,.14.39,1.13,1.13,0,0,1-.05.52,1.09,1.09,0,0,1-.25.43,1.24,1.24,0,0,1-.4.29,1.34,1.34,0,0,1,.51.17,1.37,1.37,0,0,1,.42.38,1.15,1.15,0,0,1,.2.53,1.2,1.2,0,0,1-.11.68,1.24,1.24,0,0,1-.41.5,1.27,1.27,0,0,1-.59.21,1.37,1.37,0,0,1-.56-.07,1.09,1.09,0,0,1-.49-.31,1,1,0,0,1-.24-.55.38.38,0,0,1,.07-.28.32.32,0,0,1,.23-.13.33.33,0,0,1,.17,0,.28.28,0,0,1,.14.12.48.48,0,0,1,.07.2.42.42,0,0,1-.07.27.29.29,0,0,1-.23.13h0" transform="translate(-171.19 -69.56)"/><path class="cls-6" d="M247.88,366.57a1,1,0,0,1-1.06-.58,4.55,4.55,0,0,1-.43-1.56,6.74,6.74,0,0,1,0-1.09,1.83,1.83,0,0,1,.27-.89.93.93,0,0,1,.74-.42,1,1,0,0,1,.66.16,1.3,1.3,0,0,1,.44.51,3.13,3.13,0,0,1,.25.71,6.19,6.19,0,0,1,.14.81,6.49,6.49,0,0,1,0,1.07,1.94,1.94,0,0,1-.27.87.89.89,0,0,1-.74.41Zm0-.17a.51.51,0,0,0,.45-.42,2.58,2.58,0,0,0,.1-.85c0-.3,0-.63-.07-1s-.08-.65-.14-.92a2.24,2.24,0,0,0-.28-.75.54.54,0,0,0-.53-.29.51.51,0,0,0-.45.39,2.39,2.39,0,0,0-.12.77c0,.28,0,.59.07.92l.09.69a3.6,3.6,0,0,0,.16.67,1.64,1.64,0,0,0,.29.56.48.48,0,0,0,.43.2" transform="translate(-171.19 -69.56)"/><path class="cls-6" d="M240.94,342.54l0-.23,1.45-3.25a.07.07,0,0,1,0,0h.1s.06,0,.07.06l.33,3,.57-.07,0,.23-.57.07.07.64c0,.09.07.14.19.15a1.37,1.37,0,0,0,.4,0l0,.24-1.6.19,0-.24a1.42,1.42,0,0,0,.38-.08c.11,0,.17-.1.16-.19l-.08-.65-1.53.19Zm.17-.25,1.37-.17-.26-2.33-1.11,2.5Z" transform="translate(-171.19 -69.56)"/><path class="cls-6" d="M245.28,343.27a1,1,0,0,1-1-.55,4.23,4.23,0,0,1-.44-1.55,6.77,6.77,0,0,1,0-1.09,2,2,0,0,1,.27-.91,1,1,0,0,1,.74-.44.94.94,0,0,1,.65.13,1.34,1.34,0,0,1,.44.5,3.25,3.25,0,0,1,.26.7,6.85,6.85,0,0,1,.13.81,5.66,5.66,0,0,1,0,1.08,2,2,0,0,1-.27.88.92.92,0,0,1-.74.44Zm0-.17a.54.54,0,0,0,.45-.44,2.61,2.61,0,0,0,.11-.85c0-.31,0-.64-.07-1s-.09-.65-.14-.92a2.2,2.2,0,0,0-.29-.74.52.52,0,0,0-.52-.28.54.54,0,0,0-.45.41,2.2,2.2,0,0,0-.12.78c0,.28,0,.59.07.92s.06.47.09.69a3.6,3.6,0,0,0,.16.67,1.44,1.44,0,0,0,.29.55.47.47,0,0,0,.42.19" transform="translate(-171.19 -69.56)"/><path class="cls-6" d="M238.74,319.65a.91.91,0,0,0,.22.33.83.83,0,0,0,.32.2.74.74,0,0,0,.36,0,.59.59,0,0,0,.53-.45,2.28,2.28,0,0,0,.06-.92,2.9,2.9,0,0,0,0-.39,2.64,2.64,0,0,0-.07-.3,1,1,0,0,0-.23-.37.4.4,0,0,0-.35-.12.81.81,0,0,0-.33.12.78.78,0,0,0-.21.19,1.07,1.07,0,0,0-.13.21c0,.08-.06.12-.08.12h-.06l0,0s0,0,0,0l-.24-2.18s0,0,0,0,0,0,0,0h0a1.76,1.76,0,0,0,.85.08,1.93,1.93,0,0,0,.81-.34h0s0,0,0,0,0,0,0,0v.06s0,0,0,0a1.52,1.52,0,0,1-.45.55,1.39,1.39,0,0,1-.6.26,1.85,1.85,0,0,1-.47,0l.14,1.24a1.71,1.71,0,0,1,.31-.3.9.9,0,0,1,.37-.14.93.93,0,0,1,.61.12,1.42,1.42,0,0,1,.45.49,2,2,0,0,1,.21.66,1.67,1.67,0,0,1-.09.77,1.5,1.5,0,0,1-.41.6,1.1,1.1,0,0,1-.62.3.91.91,0,0,1-.54-.08,1.15,1.15,0,0,1-.43-.39,1.34,1.34,0,0,1-.2-.58.36.36,0,0,1,.06-.26.3.3,0,0,1,.2-.13.26.26,0,0,1,.22.07.3.3,0,0,1,.12.22.36.36,0,0,1-.06.25.3.3,0,0,1-.21.13h-.08" transform="translate(-171.19 -69.56)"/><path class="cls-6" d="M242.69,320a.92.92,0,0,1-1-.52,4.17,4.17,0,0,1-.44-1.54,6.86,6.86,0,0,1,0-1.1,1.91,1.91,0,0,1,.27-.91,1,1,0,0,1,.73-.48,1,1,0,0,1,.66.11,1.29,1.29,0,0,1,.43.49,3.07,3.07,0,0,1,.26.7,6.24,6.24,0,0,1,.13.81,4.93,4.93,0,0,1,0,1.08,1.83,1.83,0,0,1-.27.89,1,1,0,0,1-.73.47Zm0-.18a.55.55,0,0,0,.45-.45,2.67,2.67,0,0,0,.1-.86c0-.31,0-.64-.07-1s-.08-.64-.14-.92a2.36,2.36,0,0,0-.28-.73.49.49,0,0,0-.53-.26.54.54,0,0,0-.45.42,2.56,2.56,0,0,0-.11.79c0,.28,0,.59.07.93s0,.46.09.68a3.33,3.33,0,0,0,.16.66,1.5,1.5,0,0,0,.28.55.44.44,0,0,0,.43.17" transform="translate(-171.19 -69.56)"/><path class="cls-6" d="M237.2,297.18a.84.84,0,0,1-.63-.11,1.3,1.3,0,0,1-.43-.49,3,3,0,0,1-.26-.69,6.35,6.35,0,0,1-.13-.76,3.31,3.31,0,0,1,.06-1.08,2.39,2.39,0,0,1,.42-1,1.28,1.28,0,0,1,.78-.5.7.7,0,0,1,.38,0,.6.6,0,0,1,.3.19.86.86,0,0,1,.14.39.35.35,0,0,1-.06.24.29.29,0,0,1-.18.13.23.23,0,0,1-.21-.06.31.31,0,0,1-.11-.21.32.32,0,0,1,.06-.23.31.31,0,0,1,.19-.13h0a.37.37,0,0,0-.22-.14.71.71,0,0,0-.29,0,.6.6,0,0,0-.31.15,1.37,1.37,0,0,0-.24.29,1.65,1.65,0,0,0-.16.36,1.83,1.83,0,0,0-.08.43,3.22,3.22,0,0,0,0,.44,3.44,3.44,0,0,0,0,.51,1.06,1.06,0,0,1,.24-.5.66.66,0,0,1,.4-.26,1,1,0,0,1,.48,0,1,1,0,0,1,.4.26,1.53,1.53,0,0,1,.29.44,2,2,0,0,1,.14.54,1.79,1.79,0,0,1-.07.76,1.63,1.63,0,0,1-.37.64,1.15,1.15,0,0,1-.59.32Zm0-.21a.62.62,0,0,0,.35-.18.88.88,0,0,0,.17-.35,1.84,1.84,0,0,0,0-.4c0-.13,0-.29,0-.48a6.25,6.25,0,0,0-.1-.64,1,1,0,0,0-.22-.43.48.48,0,0,0-.45-.12.55.55,0,0,0-.36.26,1.23,1.23,0,0,0-.17.5,1.9,1.9,0,0,0,0,.53.41.41,0,0,0,0,.14h0v0a5.05,5.05,0,0,0,.12.56,1.09,1.09,0,0,0,.26.46.44.44,0,0,0,.41.12" transform="translate(-171.19 -69.56)"/><path class="cls-6" d="M240.1,296.63a.9.9,0,0,1-1-.48,4.25,4.25,0,0,1-.43-1.54,6.83,6.83,0,0,1,0-1.1,2,2,0,0,1,.27-.92,1,1,0,0,1,.73-.5.88.88,0,0,1,.65.09,1.25,1.25,0,0,1,.44.47,3.51,3.51,0,0,1,.25.69c.06.26.1.52.14.81a5.62,5.62,0,0,1,0,1.08,2,2,0,0,1-.26.91,1,1,0,0,1-.73.49Zm0-.17a.59.59,0,0,0,.44-.47,2.74,2.74,0,0,0,.1-.87c0-.31,0-.64-.07-1s-.08-.64-.14-.92a2.08,2.08,0,0,0-.28-.72.47.47,0,0,0-.52-.25.58.58,0,0,0-.45.44,2.35,2.35,0,0,0-.11.8c0,.28,0,.59.07.92a6.81,6.81,0,0,0,.09.69,4.42,4.42,0,0,0,.15.66,1.38,1.38,0,0,0,.29.54.43.43,0,0,0,.43.16" transform="translate(-171.19 -69.56)"/><path class="cls-6" d="M234.14,273.72a4.34,4.34,0,0,1,0-.72c0-.24,0-.49.09-.73a6.17,6.17,0,0,1,.19-.74,7,7,0,0,1,.26-.69l.44-1-.66.15a10.66,10.66,0,0,0-1.05.27,2.05,2.05,0,0,0-.08.64l-.16,0,0-1.43.17,0v0c0,.08.13.11.37.08s.46-.07.68-.12l1.07-.25,0,.17v0h0l-.65,1.46a3,3,0,0,0-.24,1.19,13.07,13.07,0,0,0,.09,1.52.4.4,0,0,1-.05.24.33.33,0,0,1-.19.14.26.26,0,0,1-.21-.05.3.3,0,0,1-.1-.21" transform="translate(-171.19 -69.56)"/><path class="cls-6" d="M237.5,273.3a.87.87,0,0,1-1-.45,4.26,4.26,0,0,1-.43-1.53,5.13,5.13,0,0,1,0-1.1,2.1,2.1,0,0,1,.27-1,1.05,1.05,0,0,1,.72-.52.83.83,0,0,1,.65.07,1.15,1.15,0,0,1,.44.46,3.29,3.29,0,0,1,.25.69,6.36,6.36,0,0,1,.13.8,5,5,0,0,1,0,1.09,2.14,2.14,0,0,1-.26.92,1.07,1.07,0,0,1-.73.52Zm0-.18a.61.61,0,0,0,.44-.48,2.83,2.83,0,0,0,.1-.88,8.52,8.52,0,0,0-.07-1,7.17,7.17,0,0,0-.14-.92,2.08,2.08,0,0,0-.28-.72.46.46,0,0,0-.52-.23.59.59,0,0,0-.44.46,2.38,2.38,0,0,0-.11.8,7.88,7.88,0,0,0,.06.93l.09.69a4.5,4.5,0,0,0,.16.66,1.4,1.4,0,0,0,.28.53.42.42,0,0,0,.43.14" transform="translate(-171.19 -69.56)"/><path class="cls-6" d="M230.71,249.86a1.26,1.26,0,0,1,.15-.76,2.16,2.16,0,0,1,.52-.65l-.23-.11a1,1,0,0,1-.36-.31,1.08,1.08,0,0,1-.18-.48,1.14,1.14,0,0,1,.08-.61,1.24,1.24,0,0,1,.34-.5,1.16,1.16,0,0,1,.49-.28,1.06,1.06,0,0,1,.5,0,.88.88,0,0,1,.43.24.77.77,0,0,1,.21.49,1.05,1.05,0,0,1,0,.43,1.53,1.53,0,0,1-.21.4,3.65,3.65,0,0,1-.31.36l.35.15a.91.91,0,0,1,.42.36,1.16,1.16,0,0,1,.21.54,1.53,1.53,0,0,1-.1.7,1.64,1.64,0,0,1-.4.57,1.28,1.28,0,0,1-.56.3,1,1,0,0,1-.58,0,1,1,0,0,1-.5-.28,1,1,0,0,1-.23-.56Zm.31-.08a.9.9,0,0,0,.17.44.81.81,0,0,0,.37.26.82.82,0,0,0,.44,0,1.12,1.12,0,0,0,.58-.39.82.82,0,0,0,.21-.66.84.84,0,0,0-.07-.24.75.75,0,0,0-.15-.2.76.76,0,0,0-.19-.12l-.84-.36a1.78,1.78,0,0,0-.48.79,1.25,1.25,0,0,0,0,.47Zm.17-2.12.74.33a1.72,1.72,0,0,0,.36-.49,1.05,1.05,0,0,0,.09-.55.68.68,0,0,0-.15-.38.66.66,0,0,0-.31-.22.65.65,0,0,0-.39,0,.87.87,0,0,0-.33.17.91.91,0,0,0-.27.31.74.74,0,0,0-.08.39.55.55,0,0,0,.34.44" transform="translate(-171.19 -69.56)"/><path class="cls-6" d="M234.9,250a.82.82,0,0,1-1-.42,4.08,4.08,0,0,1-.44-1.52,6.83,6.83,0,0,1,0-1.1,2.44,2.44,0,0,1,.27-1,1.12,1.12,0,0,1,.72-.55.84.84,0,0,1,.65,0,1,1,0,0,1,.43.45,2.75,2.75,0,0,1,.26.68,6.36,6.36,0,0,1,.13.8,6.71,6.71,0,0,1,0,1.09,2.23,2.23,0,0,1-.26.94,1.13,1.13,0,0,1-.73.54Zm0-.17a.63.63,0,0,0,.44-.51,2.83,2.83,0,0,0,.1-.88,8.52,8.52,0,0,0-.07-1c0-.34-.08-.65-.14-.92a1.89,1.89,0,0,0-.28-.71.45.45,0,0,0-.52-.22.65.65,0,0,0-.44.48,2.44,2.44,0,0,0-.11.81c0,.28,0,.59.07.93a6.6,6.6,0,0,0,.09.68,3.92,3.92,0,0,0,.15.66,1.41,1.41,0,0,0,.29.53.42.42,0,0,0,.42.13" transform="translate(-171.19 -69.56)"/><path class="cls-6" d="M238.21,355.89l-2.2,1.28a.29.29,0,0,0-.12.22,1.59,1.59,0,0,0,0,.37l-.23,0-.16-1.51.22,0c0,.27.09.39.19.38h0l1.68-1-1.68-.57a.17.17,0,0,0-.1,0,.23.23,0,0,0-.18.12.43.43,0,0,0,0,.25l-.22,0-.14-1.19.23,0a.75.75,0,0,0,.13.38.6.6,0,0,0,.29.23l2.24.75a.12.12,0,0,1,.09.11v0a.1.1,0,0,1,0,.12" transform="translate(-171.19 -69.56)"/><path class="cls-6" d="M237.87,352.25a1.74,1.74,0,0,1-.1.82,1.46,1.46,0,0,1-.45.63,1.26,1.26,0,0,1-.68.29,1.39,1.39,0,0,1-.57-.06,1.63,1.63,0,0,1-.51-.29,1.78,1.78,0,0,1-.39-.47,1.81,1.81,0,0,1-.19-.61,1.65,1.65,0,0,1,.6-1.46,1.48,1.48,0,0,1,.7-.29,1.33,1.33,0,0,1,.73.14,1.47,1.47,0,0,1,.58.53,1.63,1.63,0,0,1,.28.77Zm-.19,0a.77.77,0,0,0-.45-.72,1.9,1.9,0,0,0-.95-.1,2.79,2.79,0,0,0-.51.09.82.82,0,0,0-.36.21,1.25,1.25,0,0,0-.16.22,1.31,1.31,0,0,0-.09.28,1.41,1.41,0,0,0,0,.29,1.23,1.23,0,0,0,.14.42.86.86,0,0,0,.29.31.93.93,0,0,0,.41.12,3,3,0,0,0,.51,0,3.28,3.28,0,0,0,.63-.14,1,1,0,0,0,.44-.33.86.86,0,0,0,.11-.64" transform="translate(-171.19 -69.56)"/><path class="cls-6" d="M237.58,350.24l-.23,0a3,3,0,0,0-.07-.4c0-.1-.1-.15-.19-.14l-3.29.37a.38.38,0,0,0-.23.08.36.36,0,0,0-.07.18,2.33,2.33,0,0,0,0,.33l-.22,0-.18-1,3.92-.43q.14,0,.15-.18a3.26,3.26,0,0,0,0-.41l.23,0,.18,1.62" transform="translate(-171.19 -69.56)"/><path class="cls-6" d="M236.54,347.82l-1.73.19.07.6-.16,0a.77.77,0,0,0-.46-.65,1.64,1.64,0,0,0-.85-.13l0-.2,1.14-.13-.11-1,.22,0,.11,1,1.72-.2a1.09,1.09,0,0,0,.45-.15.38.38,0,0,0,.15-.38.39.39,0,0,0-.24-.33,1.19,1.19,0,0,0-.46-.06l-.38.05,0-.22.38,0a.9.9,0,0,1,.4,0,.78.78,0,0,1,.35.21.64.64,0,0,1,.17.38,1,1,0,0,1-.16.7.75.75,0,0,1-.57.32" transform="translate(-171.19 -69.56)"/><path class="cls-6" d="M236.42,345.46a.73.73,0,0,1-.65-.26,2.28,2.28,0,0,1-.42-.77,4.51,4.51,0,0,1-.19-.88l-.26,0a.75.75,0,0,0-.34.13.78.78,0,0,0-.25.29.68.68,0,0,0-.06.4,1.21,1.21,0,0,0,.26.7.28.28,0,0,1,.07-.24.27.27,0,0,1,.2-.11.29.29,0,0,1,.23.07.38.38,0,0,1,.11.23.38.38,0,0,1-.06.26.27.27,0,0,1-.2.13.53.53,0,0,1-.53-.29,1.67,1.67,0,0,1-.25-.73,1.81,1.81,0,0,1,0-.61,1.37,1.37,0,0,1,.26-.51.67.67,0,0,1,.45-.24l1.41-.17a.4.4,0,0,0,.22-.09.2.2,0,0,0,.08-.2.17.17,0,0,0-.12-.16.39.39,0,0,0-.23,0l-.4.05,0-.2.4-.05a.45.45,0,0,1,.28.05.55.55,0,0,1,.23.2.65.65,0,0,1,.11.29.57.57,0,0,1-.1.39.57.57,0,0,1-.32.21,1,1,0,0,1,.42.35,1.07,1.07,0,0,1,.2.53,2,2,0,0,1,0,.55,1.15,1.15,0,0,1-.18.47.48.48,0,0,1-.37.22Zm-.06-.58a.45.45,0,0,0,.34-.23.65.65,0,0,0,.1-.45.77.77,0,0,0-.14-.41.74.74,0,0,0-.31-.27.75.75,0,0,0-.38-.07l-.65.08a2.23,2.23,0,0,0,.17.65,1.36,1.36,0,0,0,.35.53.63.63,0,0,0,.52.17" transform="translate(-171.19 -69.56)"/><path class="cls-6" d="M237.14,341.82a.56.56,0,0,1-.42-.13,1.07,1.07,0,0,1-.28-.41.61.61,0,0,1-.21.24.56.56,0,0,1-.31.12.77.77,0,0,1-.54-.15.85.85,0,0,1-.61.4.71.71,0,0,1-.38-.05,1,1,0,0,1-.32-.23,1.69,1.69,0,0,1-.23-.36,1.48,1.48,0,0,1-.12-.41,1.52,1.52,0,0,1,.13-.8,1.15,1.15,0,0,1-.25-.32,1.48,1.48,0,0,1-.12-.41.35.35,0,0,1,.29-.39.2.2,0,0,1,.14.05.24.24,0,0,1,0,.31.16.16,0,0,1-.12.08.17.17,0,0,1-.17-.06,1,1,0,0,0,.29.6,1.14,1.14,0,0,1,.25-.24,1,1,0,0,1,.32-.12.82.82,0,0,1,.5.11,1.13,1.13,0,0,1,.38.4,1.42,1.42,0,0,1,.18.56,1.3,1.3,0,0,1-.11.73.36.36,0,0,0,.28.07.36.36,0,0,0,.28-.16.38.38,0,0,0,.09-.33l-.06-.59a4.15,4.15,0,0,1,0-.78,1.38,1.38,0,0,1,.2-.61.74.74,0,0,1,.55-.3.5.5,0,0,1,.49.21,1.68,1.68,0,0,1,.34.6,3.89,3.89,0,0,1,.16.68,3.31,3.31,0,0,1,0,.7,1.75,1.75,0,0,1-.19.67.55.55,0,0,1-.43.32Zm0-.4a.42.42,0,0,0,.34-.24,1.47,1.47,0,0,0,.16-.5,3.18,3.18,0,0,0,0-.53,2.13,2.13,0,0,0-.13-.51,1.24,1.24,0,0,0-.26-.45.44.44,0,0,0-.38-.14.41.41,0,0,0-.39.39,2.94,2.94,0,0,0,0,.84l.07.6a.63.63,0,0,0,.1.29.58.58,0,0,0,.21.2.44.44,0,0,0,.27.05Zm-1.69-.79c0-.41-.32-.58-.83-.52a1,1,0,0,0-.52.2.54.54,0,0,0-.16.51.51.51,0,0,0,.27.44,1,1,0,0,0,.55.06,1.34,1.34,0,0,0,.37-.09.49.49,0,0,0,.26-.21.6.6,0,0,0,.06-.39" transform="translate(-171.19 -69.56)"/><path class="cls-6" d="M236.14,336.7a1.64,1.64,0,0,1-.58,1.47,1.4,1.4,0,0,1-.69.29,1.27,1.27,0,0,1-.72-.1,1.38,1.38,0,0,1-.59-.46,1.43,1.43,0,0,1-.29-.73,1.79,1.79,0,0,1,0-.58,1.18,1.18,0,0,1,.23-.43,1.26,1.26,0,0,1,.38-.3,1.55,1.55,0,0,1,.49-.14q.09,0,.09.06l.23,2.07h.08a1.62,1.62,0,0,0,.86-.35.89.89,0,0,0,.29-.84,1.06,1.06,0,0,0-.13-.39.86.86,0,0,0-.28-.29.78.78,0,0,0-.35-.15l0,0a.05.05,0,0,1,0,0v-.07s0-.07.08-.08a1.07,1.07,0,0,1,.63.36,1.3,1.3,0,0,1,.31.73Zm-1.57,1.16-.18-1.63a2,2,0,0,0-.47.14.85.85,0,0,0-.37.3.64.64,0,0,0-.11.48.68.68,0,0,0,.4.58,1.25,1.25,0,0,0,.73.13" transform="translate(-171.19 -69.56)"/><polyline class="cls-6" points="65.98 262.68 59.73 263.53 59.62 262.56 59.87 262.52 59.95 263.21 65.7 262.43 65.62 261.74 65.87 261.7 65.98 262.68"/><path class="cls-6" d="M235.26,328.77,231.53,331a.3.3,0,0,0-.14.26,2.56,2.56,0,0,0,0,.46l-.22,0-.22-2,.22,0c.05.39.12.58.23.56h0l3-1.82-3.16-.87h-.07a.22.22,0,0,0-.2.18.77.77,0,0,0,0,.37l-.22,0-.18-1.55.22,0a1.45,1.45,0,0,0,.14.47.49.49,0,0,0,.31.24l3.93,1.09c.05,0,.07.05.08.11v.09c0,.06,0,.1-.05.12" transform="translate(-171.19 -69.56)"/><polyline class="cls-6" points="65.24 255.98 64.98 256.01 64.91 255.31 59.16 256.15 59.24 256.85 58.99 256.89 58.88 255.9 65.13 254.99 65.24 255.98"/><g class="cls-2"><line class="cls-7" x1="66.98" y1="174.83" x2="350.03" y2="99.86"/><polyline class="cls-8" points="88.13 364.96 88.47 364.95 88.81 364.94 89.15 364.93 89.49 364.92 89.84 364.92 90.18 364.91 90.53 364.9 90.87 364.89 91.21 364.89 91.56 364.88 91.9 364.87 92.25 364.86 92.6 364.85 92.94 364.84 93.29 364.84 93.64 364.83 93.98 364.83 94.33 364.82 94.68 364.81 95.03 364.81 95.38 364.81 95.73 364.8 96.08 364.8 96.43 364.8 96.78 364.79 97.13 364.79 97.48 364.79 97.83 364.79 98.18 364.79 98.54 364.79 98.89 364.79 99.24 364.79 99.6 364.78 99.95 364.78 100.3 364.79 100.66 364.78 101.02 364.79 101.37 364.78 101.72 364.78 102.08 364.78 102.44 364.79 102.8 364.78 103.15 364.78 103.51 364.78 103.87 364.78 104.22 364.77 104.58 364.76 104.94 364.76 105.3 364.75 105.66 364.75 106.02 364.74 106.38 364.73 106.74 364.72 107.1 364.71 107.46 364.7 107.82 364.69 108.18 364.67 108.54 364.66 108.9 364.64 109.26 364.63 109.63 364.61 109.99 364.6 110.35 364.57 110.71 364.55 111.08 364.52 111.44 364.5 111.8 364.47 112.17 364.44 112.53 364.42 112.89 364.38 113.26 364.36 113.62 364.32 113.98 364.29 114.35 364.25 114.72 364.22 115.08 364.18 115.44 364.14 115.81 364.1 116.18 364.05 116.54 364 116.91 363.96 117.27 363.9 117.64 363.85 118 363.79 118.37 363.73 118.74 363.67 119.1 363.6 119.47 363.54 119.84 363.46 120.2 363.39 120.57 363.31 120.94 363.23 121.3 363.15 121.67 363.06 122.04 362.97 122.4 362.88 122.77 362.78 123.14 362.67 123.5 362.57 123.87 362.45 124.23 362.33 124.6 362.2 124.97 362.08 125.33 361.94 125.69 361.81 126.06 361.65 126.42 361.5 126.79 361.34 127.15 361.17 127.51 360.99 127.88 360.81 128.24 360.63 128.6 360.43 128.96 360.23 129.32 360.02 129.69 359.81 130.04 359.58 130.41 359.35 130.76 359.1 131.12 358.85 131.48 358.59 131.84 358.32 132.19 358.04 132.55 357.75 132.91 357.44 133.26 357.14 133.62 356.82 133.97 356.49 134.32 356.14 134.67 355.79 135.02 355.43 135.37 355.05 135.72 354.67 136.07 354.27 136.42 353.87 136.76 353.44 137.11 353.02 137.46 352.58 137.8 352.12 138.14 351.66 138.49 351.18 138.83 350.7 139.17 350.2 139.51 349.69 139.85 349.18 140.19 348.65 140.53 348.12 140.86 347.57 141.2 347.02 141.54 346.46 141.88 345.89 142.21 345.32 142.55 344.74 142.88 344.15 143.22 343.56 143.56 342.96 143.89 342.36 144.22 341.75 144.56 341.13 144.9 340.52 145.23 339.89 145.56 339.27 145.9 338.64 146.24 338.02 146.57 337.38 146.91 336.75 147.24 336.11 147.58 335.48 147.92 334.84 148.25 334.19 148.59 333.56 148.93 332.92 149.26 332.27 149.6 331.63 149.94 330.99 150.28 330.35 150.62 329.71 150.96 329.08 151.31 328.45 151.65 327.81 151.99 327.18 152.34 326.56 152.68 325.94 153.02 325.32 153.37 324.7 153.72 324.1 154.07 323.49 154.42 322.89 154.76 322.29 155.12 321.7 155.47 321.11 155.82 320.53 156.18 319.95 156.53 319.38 156.89 318.82 157.25 318.26 157.61 317.72 157.97 317.17 158.33 316.63 158.69 316.1 159.05 315.59 159.42 315.07 159.78 314.56 160.15 314.06 160.52 313.57 160.89 313.09 161.26 312.61 161.64 312.15 162.01 311.69 162.39 311.24 162.77 310.79 163.15 310.36 163.53 309.93 163.91 309.51 164.29 309.1 164.67 308.7 165.06 308.3 165.44 307.91 165.83 307.52 166.22 307.15 166.61 306.78 167 306.42 167.4 306.06 167.79 305.71 168.18 305.37 168.58 305.04 168.98 304.71 169.38 304.38 169.78 304.06 170.18 303.75 170.58 303.45 170.98 303.15 171.39 302.86 171.79 302.57 172.2 302.3 172.61 302.02 173.02 301.75 173.43 301.5 173.84 301.25 174.25 301 174.67 300.76 175.08 300.53 175.5 300.31 175.92 300.1 176.34 299.88 176.76 299.68 177.18 299.49 177.6 299.29 178.03 299.11 178.45 298.94 178.88 298.76 179.31 298.59 179.74 298.43 180.17 298.27 180.6 298.12 181.03 297.97 181.46 297.83 181.89 297.69 182.33 297.55 182.76 297.42 183.2 297.3 183.64 297.17 184.08 297.06 184.52 296.95 184.96 296.84 185.4 296.74 185.84 296.64 186.29 296.54 186.73 296.45 187.18 296.36 187.62 296.27 188.07 296.19 188.52 296.11 188.97 296.04 189.42 295.96 189.87 295.89 190.32 295.82 190.77 295.75 191.22 295.69 191.68 295.64 192.13 295.58 192.59 295.53 193.05 295.49 193.5 295.45 193.96 295.42 194.42 295.39 194.89 295.37 195.35 295.36 195.81 295.35 196.28 295.35 196.75 295.34 197.21 295.34 197.68 295.36 198.15 295.37 198.62 295.38 199.09 295.41 199.56 295.44 200.04 295.48 200.51 295.52 200.99 295.57 201.47 295.62 201.95 295.69 202.43 295.76 202.91 295.83 203.39 295.91 203.88 296 204.36 296.1 204.85 296.19 205.33 296.3 205.82 296.41 206.31 296.53 206.81 296.66 207.3 296.8 207.79 296.94 208.29 297.08 208.78 297.24 209.28 297.4 209.78 297.56 210.28 297.74 210.78 297.92 211.29 298.1 211.79 298.29 212.3 298.48 212.8 298.68 213.31 298.89 213.82 299.11 214.33 299.33 214.84 299.56 215.35 299.79 215.87 300.03 216.38 300.28 216.9 300.53 217.42 300.8 217.94 301.06 218.46 301.33 218.98 301.61 219.5 301.89 220.03 302.18 220.55 302.48 221.08 302.78 221.61 303.08 222.13 303.4 222.66 303.71 223.19 304.03 223.73 304.35 224.26 304.68 224.79 305.02 225.33 305.35 225.87 305.69 226.4 306.04 226.94 306.39 227.48 306.74 228.02 307.1 228.56 307.46 229.1 307.83 229.65 308.2 230.19 308.58 230.74 308.96 231.29 309.34 231.83 309.73 232.38 310.12 232.93 310.5 233.48 310.9 234.03 311.3 234.59 311.7 235.14 312.11 235.69 312.51 236.25 312.93 236.8 313.34 237.36 313.75 237.92 314.17 238.48 314.59 239.04 315.01 239.6 315.43 240.16 315.86 240.72 316.29 241.28 316.72 241.85 317.15 242.41 317.59 242.98 318.04 243.54 318.48 244.11 318.92 244.68 319.37 245.25 319.82 245.82 320.27 246.39 320.72 246.96 321.18 247.53 321.63 248.11 322.09 248.68 322.55 249.26 323.02 249.83 323.49 250.41 323.96 250.99 324.43 251.57 324.91 252.15 325.39 252.73 325.86 253.31 326.34 253.89 326.82 254.47 327.31 255.06 327.79 255.64 328.28 256.23 328.76 256.81 329.25 257.4 329.73 257.99 330.22 258.57 330.71 259.17 331.2 259.75 331.69 260.34 332.18 260.94 332.66 261.52 333.14 262.12 333.63 262.71 334.1 263.3 334.58 263.89 335.05 264.49 335.52 265.08 335.99 265.67 336.45 266.27 336.93 266.86 337.39 267.46 337.86 268.05 338.32 268.65 338.79 269.25 339.24 269.84 339.7 270.44 340.15 271.04 340.61 271.64 341.05 272.24 341.5 272.84 341.95 273.44 342.39 274.04 342.82 274.64 343.26 275.24 343.7 275.84 344.12 276.44 344.55 277.04 344.97 277.64 345.39 278.25 345.81 278.85 346.22 279.45 346.63 280.06 347.05 280.66 347.45 281.26 347.86 281.87 348.26 282.47 348.66 283.08 349.05 283.69 349.44 284.29 349.83 284.9 350.21 285.51 350.6 286.11 350.98 286.72 351.36 287.33 351.72 287.94 352.09 288.55 352.46 289.15 352.81 289.76 353.17 290.37 353.51 290.98 353.86 291.59 354.2 292.2 354.53 292.81 354.87 293.42 355.2 294.03 355.51 294.64 355.83 295.25 356.14 295.86 356.44 296.48 356.74 297.09 357.04 297.7 357.33 298.31 357.63 298.92 357.91 299.54 358.19 300.15 358.46 300.76 358.74 301.38 359.01 301.99 359.27 302.6 359.54 303.22 359.8 303.83 360.06 304.45 360.31 305.07 360.57 305.68 360.82 306.3 361.05 306.92 361.3 307.54 361.53 308.15 361.76 308.77 361.99 309.39 362.2 310.01 362.42 310.63 362.63 311.24 362.84 311.86 363.04 312.48 363.23 313.1 363.43 313.72 363.62 314.34 363.8 314.96 363.98 315.58 364.15 316.21 364.33 316.83 364.5 317.45 364.66 318.07 364.82 318.7 364.98 319.32 365.13 319.94 365.28 320.56 365.42 321.19 365.57 321.81 365.7 322.44 365.83 323.06 365.97 323.69 366.09 324.32 366.21 324.94 366.34 325.57 366.45 326.2 366.57 326.83 366.67 327.46 366.78 328.08 366.88 328.71 366.98 329.35 367.08 329.98 367.18 330.61 367.27 331.24 367.37 331.87 367.45 332.5 367.54 333.14 367.62 333.77 367.69 334.4 367.77 335.04 367.85 335.68 367.93 336.31 367.99 336.95 368.07 337.59 368.13 338.23 368.2 338.86 368.27 339.5 368.33 340.14 368.39 340.79 368.45 341.43 368.51 342.07 368.56 342.71 368.61 343.35 368.66 344 368.71 344.64 368.75 345.29 368.8 345.93 368.83 346.58 368.88 347.23 368.91 347.88 368.95 348.52 368.98 349.17 369.02 349.82 369.05 350.47 369.07 351.12 369.1 351.78 369.13 352.43 369.16 353.08 369.18 353.74 369.21 354.39 369.23 355.05 369.24 355.7 369.26 356.36 369.28 357.02 369.29 357.68 369.31 358.34 369.33 359 369.34 359.66 369.35 360.32 369.36 360.98 369.36 361.64 369.37 362.31 369.38 362.97 369.39 363.64 369.4 364.31 369.41 364.98 369.42 365.64 369.42 366.31 369.43 366.98 369.43 367.65 369.43 368.33 369.43 369 369.43 369.67 369.43 370.35 369.43 371.02 369.43 371.7 369.43 372.37 369.42 373.05 369.42 373.73 369.42 374.41 369.42 375.09 369.41 375.77 369.41 376.45 369.41 377.14 369.4 377.82 369.4 378.51 369.4 379.19 369.39"/></g><polyline class="cls-9" points="87.82 362.2 88.16 362.18 88.5 362.16 88.84 362.15 89.18 362.12 89.53 362.12 89.87 362.1 90.21 362.08 90.56 362.06 90.9 362.05 91.24 362.03 91.59 362.01 91.93 362 92.28 361.98 92.62 361.96 92.97 361.95 93.31 361.93 93.66 361.92 94.01 361.9 94.35 361.89 94.7 361.88 95.05 361.87 95.4 361.85 95.75 361.84 96.1 361.83 96.45 361.82 96.8 361.81 97.15 361.8 97.5 361.8 97.85 361.79 98.2 361.79 98.56 361.78 98.91 361.78 99.26 361.77 99.61 361.77 99.97 361.77 100.32 361.77 100.68 361.78 101.04 361.78 101.39 361.78 101.75 361.78 102.11 361.79 102.46 361.8 102.82 361.8 103.18 361.8 103.54 361.81 103.89 361.8 104.25 361.8 104.61 361.8 104.97 361.81 105.33 361.81 105.69 361.81 106.05 361.81 106.41 361.81 106.78 361.8 107.14 361.8 107.5 361.8 107.86 361.79 108.22 361.77 108.58 361.76 108.94 361.75 109.31 361.73 109.67 361.71 110.03 361.67 110.39 361.64 110.75 361.6 111.11 361.55 111.47 361.5 111.83 361.45 112.19 361.39 112.55 361.32 112.91 361.26 113.27 361.17 113.63 361.09 113.99 360.99 114.35 360.9 114.7 360.8 115.06 360.7 115.42 360.58 115.78 360.46 116.13 360.32 116.49 360.19 116.84 360.05 117.2 359.9 117.56 359.74 117.91 359.57 118.27 359.4 118.62 359.22 118.97 359.04 119.32 358.84 119.68 358.64 120.03 358.44 120.38 358.22 120.73 358 121.08 357.77 121.43 357.53 121.78 357.29 122.13 357.03 122.48 356.77 122.83 356.5 123.18 356.23 123.52 355.94 123.87 355.64 124.22 355.35 124.56 355.03 124.91 354.71 125.25 354.38 125.6 354.04 125.94 353.7 126.28 353.34 126.63 352.98 126.97 352.61 127.31 352.23 127.65 351.84 127.99 351.45 128.33 351.04 128.67 350.62 129.01 350.2 129.34 349.76 129.68 349.32 130.02 348.87 130.35 348.4 130.69 347.92 131.02 347.43 131.35 346.93 131.69 346.42 132.02 345.91 132.35 345.38 132.68 344.85 133.01 344.29 133.34 343.74 133.67 343.17 133.99 342.59 134.32 342.01 134.65 341.4 134.97 340.8 135.3 340.18 135.62 339.56 135.95 338.94 136.27 338.28 136.59 337.63 136.91 336.98 137.24 336.31 137.56 335.65 137.88 334.97 138.2 334.29 138.52 333.61 138.84 332.92 139.16 332.22 139.49 331.52 139.81 330.83 140.13 330.12 140.45 329.43 140.78 328.72 141.1 328.01 141.42 327.31 141.75 326.62 142.07 325.92 142.4 325.22 142.72 324.51 143.05 323.82 143.37 323.12 143.7 322.44 144.03 321.75 144.36 321.07 144.69 320.38 145.02 319.7 145.35 319.03 145.69 318.35 146.02 317.68 146.35 317 146.69 316.34 147.02 315.67 147.36 315.01 147.69 314.34 148.03 313.68 148.37 313.02 148.71 312.36 149.04 311.71 149.38 311.07 149.72 310.42 150.07 309.78 150.41 309.15 150.75 308.52 151.1 307.89 151.44 307.28 151.79 306.67 152.14 306.07 152.49 305.47 152.84 304.87 153.19 304.28 153.54 303.69 153.9 303.12 154.25 302.55 154.61 301.99 154.97 301.43 155.33 300.88 155.69 300.35 156.05 299.81 156.41 299.29 156.78 298.77 157.14 298.27 157.51 297.77 157.88 297.27 158.25 296.79 158.62 296.32 158.99 295.85 159.36 295.39 159.74 294.95 160.12 294.51 160.49 294.07 160.87 293.65 161.25 293.23 161.64 292.81 162.02 292.41 162.4 292.01 162.79 291.62 163.17 291.23 163.56 290.84 163.95 290.47 164.34 290.1 164.73 289.73 165.12 289.37 165.51 289.01 165.91 288.67 166.3 288.32 166.7 287.98 167.1 287.65 167.5 287.33 167.9 287 168.29 286.69 168.7 286.38 169.1 286.08 169.5 285.78 169.91 285.48 170.31 285.2 170.72 284.91 171.13 284.63 171.54 284.37 171.95 284.11 172.36 283.85 172.77 283.59 173.19 283.35 173.6 283.11 174.02 282.88 174.44 282.65 174.86 282.43 175.28 282.21 175.7 282 176.12 281.8 176.54 281.6 176.97 281.4 177.39 281.2 177.82 281.01 178.24 280.83 178.67 280.65 179.1 280.47 179.53 280.3 179.96 280.12 180.39 279.95 180.82 279.79 181.25 279.63 181.69 279.47 182.12 279.32 182.56 279.17 183 279.02 183.44 278.88 183.87 278.74 184.31 278.6 184.75 278.47 185.19 278.33 185.63 278.2 186.08 278.08 186.52 277.96 186.96 277.84 187.41 277.72 187.85 277.6 188.3 277.49 188.75 277.37 189.2 277.27 189.65 277.17 190.09 277.06 190.55 276.97 191 276.89 191.45 276.81 191.91 276.73 192.36 276.65 192.82 276.58 193.28 276.52 193.74 276.46 194.2 276.41 194.66 276.36 195.12 276.31 195.58 276.27 196.04 276.23 196.51 276.2 196.98 276.17 197.44 276.15 197.91 276.14 198.38 276.13 198.85 276.13 199.32 276.13 199.8 276.14 200.27 276.16 200.75 276.18 201.22 276.21 201.7 276.24 202.18 276.28 202.66 276.33 203.14 276.38 203.63 276.44 204.11 276.51 204.6 276.58 205.09 276.66 205.57 276.74 206.06 276.84 206.55 276.94 207.04 277.04 207.54 277.15 208.03 277.26 208.53 277.39 209.03 277.52 209.52 277.65 210.02 277.79 210.52 277.93 211.02 278.08 211.53 278.23 212.03 278.4 212.54 278.57 213.04 278.75 213.55 278.94 214.06 279.13 214.57 279.33 215.08 279.53 215.6 279.75 216.11 279.96 216.63 280.19 217.15 280.42 217.66 280.66 218.19 280.91 218.71 281.17 219.23 281.42 219.75 281.69 220.28 281.96 220.81 282.24 221.33 282.54 221.86 282.83 222.39 283.13 222.92 283.42 223.46 283.73 223.99 284.05 224.53 284.37 225.06 284.7 225.6 285.03 226.14 285.37 226.68 285.71 227.22 286.06 227.76 286.43 228.31 286.79 228.85 287.17 229.4 287.55 229.95 287.94 230.5 288.32 231.05 288.73 231.6 289.13 232.16 289.55 232.71 289.97 233.27 290.4 233.83 290.84 234.39 291.28 234.95 291.73 235.51 292.18 236.07 292.63 236.63 293.09 237.2 293.55 237.77 294.03 238.33 294.5 238.9 294.98 239.47 295.45 240.04 295.94 240.61 296.43 241.18 296.92 241.75 297.42 242.33 297.91 242.9 298.41 243.48 298.92 244.06 299.43 244.64 299.95 245.21 300.46 245.8 300.99 246.38 301.51 246.96 302.05 247.54 302.58 248.13 303.13 248.72 303.68 249.3 304.23 249.89 304.79 250.48 305.34 251.07 305.9 251.66 306.46 252.25 307.02 252.85 307.6 253.44 308.17 254.03 308.73 254.63 309.29 255.23 309.86 255.82 310.43 256.42 311.01 257.02 311.59 257.62 312.17 258.22 312.74 258.82 313.32 259.42 313.9 260.02 314.48 260.62 315.04 261.23 315.62 261.83 316.19 262.43 316.76 263.04 317.33 263.64 317.9 264.25 318.48 264.86 319.05 265.46 319.62 266.07 320.19 266.68 320.76 267.29 321.32 267.9 321.89 268.51 322.45 269.12 323.02 269.73 323.58 270.34 324.14 270.95 324.71 271.56 325.27 272.18 325.82 272.79 326.38 273.41 326.93 274.02 327.48 274.63 328.02 275.25 328.57 275.86 329.11 276.48 329.65 277.1 330.18 277.71 330.71 278.33 331.25 278.95 331.78 279.57 332.31 280.19 332.84 280.81 333.38 281.43 333.89 282.05 334.42 282.67 334.94 283.29 335.46 283.91 335.97 284.53 336.49 285.15 337 285.78 337.5 286.4 338.01 287.02 338.51 287.65 339 288.27 339.49 288.89 339.97 289.52 340.45 290.14 340.93 290.77 341.39 291.39 341.86 292.02 342.32 292.64 342.77 293.27 343.21 293.89 343.65 294.52 344.08 295.14 344.51 295.77 344.94 296.39 345.36 297.02 345.78 297.64 346.19 298.27 346.59 298.9 347 299.53 347.4 300.15 347.8 300.78 348.2 301.41 348.59 302.04 348.98 302.67 349.36 303.3 349.74 303.93 350.12 304.56 350.49 305.19 350.85 305.82 351.21 306.45 351.56 307.08 351.91 307.71 352.25 308.34 352.59 308.97 352.92 309.6 353.25 310.23 353.56 310.87 353.87 311.5 354.19 312.13 354.49 312.76 354.79 313.39 355.09 314.03 355.38 314.66 355.67 315.3 355.96 315.93 356.24 316.56 356.53 317.2 356.81 317.84 357.08 318.47 357.34 319.11 357.6 319.74 357.86 320.38 358.11 321.02 358.36 321.65 358.6 322.29 358.84 322.93 359.08 323.57 359.32 324.21 359.55 324.85 359.78 325.49 360 326.13 360.21 326.76 360.43 327.4 360.63 328.05 360.84 328.69 361.04 329.33 361.24 329.97 361.44 330.62 361.63 331.26 361.81 331.9 361.99 332.55 362.17 333.19 362.34 333.83 362.52 334.48 362.68 335.13 362.86 335.77 363.01 336.42 363.18 337.07 363.33 337.71 363.49 338.36 363.64 339.01 363.77 339.66 363.92 340.31 364.06 340.96 364.18 341.61 364.3 342.25 364.42 342.9 364.52 343.56 364.62 344.2 364.72 344.86 364.82 345.51 364.9 346.16 364.99 346.81 365.06 347.46 365.14 348.11 365.2 348.77 365.27 349.42 365.33 350.07 365.38 350.73 365.43 351.38 365.48 352.04 365.53 352.69 365.56 353.35 365.6 354 365.63 354.66 365.65 355.31 365.68 355.97 365.7 356.63 365.72 357.29 365.74 357.95 365.76 358.61 365.77 359.27 365.78 359.93 365.8 360.59 365.79 361.26 365.8 361.92 365.81 362.59 365.81 363.25 365.82 363.92 365.82 364.59 365.82 365.25 365.82 365.92 365.83 366.59 365.82 367.26 365.82 367.93 365.81 368.61 365.81 369.28 365.8 369.95 365.79 370.63 365.79 371.3 365.78 371.98 365.77 372.66 365.76 373.33 365.76 374.01 365.75 374.69 365.74 375.37 365.72 376.06 365.72 376.74 365.7 377.42 365.7 378.11 365.69 378.79 365.67"/><polyline class="cls-10" points="88.43 367.72 88.78 367.72 89.12 367.72 89.46 367.72 89.81 367.71 90.15 367.72 90.49 367.72 90.84 367.73 91.19 367.72 91.53 367.72 91.88 367.72 92.22 367.72 92.57 367.72 92.92 367.73 93.26 367.73 93.61 367.73 93.96 367.73 94.31 367.73 94.66 367.73 95 367.74 95.35 367.74 95.7 367.75 96.05 367.75 96.4 367.75 96.76 367.76 97.11 367.76 97.46 367.77 97.81 367.77 98.16 367.78 98.52 367.78 98.87 367.79 99.22 367.8 99.58 367.79 99.93 367.8 100.28 367.8 100.64 367.8 100.99 367.8 101.35 367.79 101.7 367.79 102.06 367.79 102.42 367.78 102.77 367.78 103.13 367.77 103.48 367.77 103.84 367.76 104.2 367.75 104.55 367.73 104.91 367.72 105.27 367.71 105.63 367.69 105.98 367.68 106.34 367.66 106.7 367.64 107.06 367.63 107.42 367.61 107.78 367.59 108.14 367.57 108.5 367.56 108.86 367.54 109.22 367.52 109.58 367.51 109.95 367.49 110.31 367.49 110.67 367.47 111.03 367.46 111.4 367.45 111.77 367.45 112.13 367.44 112.5 367.44 112.86 367.44 113.23 367.45 113.6 367.46 113.97 367.47 114.34 367.49 114.71 367.51 115.08 367.53 115.45 367.55 115.83 367.58 116.2 367.61 116.58 367.65 116.95 367.69 117.33 367.72 117.7 367.76 118.08 367.8 118.45 367.84 118.83 367.88 119.21 367.93 119.59 367.98 119.97 368.03 120.35 368.08 120.73 368.14 121.11 368.19 121.49 368.25 121.87 368.31 122.26 368.36 122.64 368.41 123.02 368.46 123.41 368.52 123.79 368.57 124.17 368.63 124.56 368.68 124.94 368.73 125.33 368.77 125.71 368.82 126.1 368.86 126.48 368.89 126.86 368.92 127.25 368.94 127.63 368.97 128.02 368.99 128.4 369.01 128.78 369.02 129.17 369.02 129.55 369.02 129.94 369.01 130.32 369 130.7 368.98 131.08 368.96 131.47 368.93 131.85 368.89 132.23 368.84 132.61 368.78 132.99 368.72 133.37 368.64 133.75 368.56 134.13 368.47 134.5 368.36 134.88 368.25 135.26 368.12 135.63 367.98 136.01 367.84 136.38 367.68 136.75 367.51 137.12 367.32 137.49 367.13 137.86 366.93 138.23 366.7 138.6 366.47 138.97 366.22 139.33 365.96 139.69 365.68 140.06 365.38 140.42 365.08 140.78 364.75 141.14 364.41 141.5 364.06 141.85 363.7 142.21 363.32 142.56 362.92 142.92 362.51 143.27 362.09 143.62 361.66 143.97 361.22 144.32 360.76 144.67 360.29 145.02 359.8 145.36 359.3 145.71 358.8 146.05 358.27 146.4 357.75 146.74 357.21 147.08 356.66 147.43 356.1 147.77 355.53 148.11 354.95 148.45 354.37 148.79 353.79 149.13 353.19 149.47 352.59 149.81 351.99 150.15 351.38 150.49 350.77 150.83 350.16 151.17 349.54 151.51 348.92 151.86 348.3 152.2 347.68 152.54 347.06 152.88 346.44 153.22 345.82 153.57 345.2 153.91 344.58 154.26 343.96 154.6 343.35 154.95 342.74 155.29 342.12 155.64 341.51 155.99 340.91 156.34 340.3 156.69 339.7 157.04 339.11 157.39 338.51 157.74 337.93 158.1 337.35 158.45 336.78 158.81 336.21 159.16 335.64 159.52 335.08 159.88 334.52 160.24 333.97 160.6 333.43 160.97 332.9 161.33 332.37 161.69 331.84 162.06 331.32 162.43 330.81 162.79 330.31 163.16 329.82 163.53 329.34 163.91 328.86 164.28 328.4 164.66 327.94 165.03 327.49 165.41 327.04 165.79 326.61 166.17 326.19 166.56 325.77 166.94 325.36 167.33 324.97 167.71 324.58 168.1 324.2 168.49 323.83 168.88 323.46 169.28 323.11 169.67 322.76 170.06 322.42 170.46 322.08 170.86 321.76 171.26 321.44 171.66 321.12 172.06 320.81 172.46 320.51 172.87 320.22 173.27 319.94 173.68 319.66 174.09 319.39 174.49 319.13 174.9 318.87 175.31 318.62 175.73 318.38 176.14 318.15 176.56 317.92 176.98 317.71 177.4 317.5 177.81 317.31 178.24 317.11 178.66 316.93 179.08 316.75 179.51 316.58 179.94 316.42 180.36 316.27 180.79 316.12 181.22 315.97 181.65 315.84 182.09 315.71 182.52 315.58 182.96 315.46 183.39 315.35 183.83 315.24 184.27 315.14 184.71 315.05 185.15 314.96 185.59 314.87 186.03 314.79 186.47 314.72 186.92 314.65 187.37 314.59 187.81 314.53 188.26 314.47 188.71 314.42 189.16 314.37 189.61 314.33 190.06 314.29 190.52 314.26 190.97 314.23 191.42 314.2 191.88 314.17 192.34 314.14 192.79 314.13 193.25 314.11 193.71 314.1 194.17 314.09 194.63 314.08 195.09 314.09 195.56 314.1 196.02 314.11 196.49 314.12 196.95 314.16 197.42 314.19 197.89 314.23 198.36 314.27 198.83 314.32 199.3 314.37 199.78 314.43 200.25 314.49 200.73 314.56 201.21 314.63 201.68 314.71 202.16 314.81 202.64 314.9 203.13 315 203.61 315.11 204.09 315.23 204.58 315.35 205.07 315.48 205.56 315.61 206.05 315.75 206.54 315.9 207.03 316.05 207.52 316.21 208.02 316.38 208.51 316.55 209.01 316.73 209.51 316.93 210.01 317.12 210.51 317.33 211.01 317.53 211.52 317.75 212.02 317.97 212.53 318.2 213.04 318.43 213.55 318.68 214.06 318.92 214.57 319.17 215.08 319.43 215.59 319.7 216.11 319.97 216.63 320.25 217.14 320.53 217.66 320.82 218.18 321.12 218.71 321.42 219.23 321.73 219.75 322.05 220.28 322.37 220.8 322.69 221.33 323.02 221.86 323.36 222.39 323.7 222.92 324.04 223.45 324.38 223.98 324.74 224.52 325.09 225.05 325.44 225.59 325.8 226.12 326.16 226.66 326.52 227.2 326.9 227.73 327.26 228.27 327.64 228.81 328.01 229.35 328.4 229.9 328.78 230.44 329.16 230.99 329.55 231.53 329.94 232.08 330.33 232.62 330.72 233.17 331.11 233.72 331.5 234.26 331.89 234.81 332.29 235.36 332.68 235.91 333.07 236.46 333.46 237.01 333.84 237.56 334.23 238.12 334.62 238.67 335 239.22 335.38 239.77 335.77 240.33 336.15 240.88 336.53 241.44 336.91 241.99 337.3 242.55 337.68 243.1 338.07 243.66 338.45 244.22 338.85 244.78 339.24 245.34 339.63 245.9 340.03 246.47 340.42 247.03 340.82 247.59 341.21 248.16 341.61 248.72 342 249.29 342.4 249.85 342.79 250.42 343.19 250.98 343.58 251.55 343.98 252.12 344.38 252.69 344.78 253.26 345.18 253.83 345.58 254.4 345.98 254.97 346.37 255.54 346.77 256.12 347.17 256.69 347.58 257.27 347.98 257.84 348.38 258.42 348.79 259 349.19 259.57 349.59 260.15 350 260.73 350.4 261.31 350.8 261.89 351.21 262.47 351.6 263.05 352 263.63 352.38 264.21 352.77 264.79 353.15 265.37 353.53 265.95 353.9 266.54 354.27 267.12 354.64 267.7 355.01 268.28 355.37 268.87 355.74 269.45 356.1 270.04 356.45 270.62 356.81 271.2 357.16 271.79 357.5 272.37 357.84 272.96 358.19 273.55 358.52 274.13 358.86 274.72 359.19 275.31 359.5 275.89 359.82 276.48 360.14 277.07 360.45 277.65 360.76 278.24 361.07 278.83 361.37 279.42 361.68 280.01 361.97 280.6 362.26 281.19 362.55 281.78 362.84 282.37 363.12 282.96 363.4 283.55 363.67 284.14 363.94 284.73 364.2 285.32 364.46 285.92 364.72 286.51 364.97 287.1 365.22 287.69 365.46 288.29 365.7 288.88 365.93 289.47 366.17 290.07 366.39 290.66 366.62 291.26 366.84 291.85 367.05 292.44 367.27 293.04 367.47 293.63 367.67 294.23 367.87 294.83 368.07 295.42 368.26 296.02 368.44 296.61 368.62 297.21 368.79 297.81 368.97 298.4 369.14 299 369.3 299.6 369.47 300.2 369.62 300.8 369.77 301.4 369.93 302 370.07 302.6 370.21 303.2 370.35 303.8 370.49 304.4 370.63 305 370.76 305.6 370.89 306.2 371.02 306.81 371.14 307.41 371.26 308.02 371.38 308.62 371.49 309.22 371.6 309.83 371.72 310.43 371.81 311.04 371.92 311.65 372.01 312.25 372.11 312.86 372.2 313.47 372.28 314.07 372.36 314.68 372.44 315.29 372.51 315.9 372.57 316.51 372.63 317.12 372.69 317.73 372.75 318.33 372.8 318.94 372.84 319.56 372.88 320.17 372.92 320.78 372.96 321.39 372.99 322 373.02 322.61 373.04 323.23 373.06 323.84 373.09 324.45 373.1 325.07 373.11 325.68 373.12 326.3 373.13 326.91 373.14 327.53 373.13 328.15 373.13 328.76 373.13 329.38 373.13 330 373.12 330.62 373.11 331.24 373.1 331.86 373.1 332.48 373.08 333.11 373.08 333.73 373.06 334.35 373.04 334.98 373.03 335.6 373.01 336.23 373 336.85 372.97 337.48 372.95 338.11 372.94 338.74 372.92 339.37 372.9 340 372.88 340.63 372.87 341.26 372.85 341.9 372.84 342.53 372.83 343.17 372.81 343.8 372.8 344.44 372.79 345.08 372.78 345.72 372.77 346.36 372.77 347 372.77 347.64 372.76 348.29 372.76 348.93 372.76 349.58 372.76 350.23 372.77 350.87 372.77 351.52 372.77 352.17 372.78 352.82 372.79 353.48 372.8 354.13 372.81 354.78 372.83 355.44 372.83 356.09 372.84 356.75 372.86 357.4 372.86 358.06 372.88 358.72 372.89 359.38 372.9 360.04 372.91 360.71 372.93 361.37 372.93 362.03 372.94 362.7 372.96 363.36 372.97 364.03 372.99 364.7 373 365.37 373.02 366.03 373.02 366.7 373.03 367.37 373.03 368.05 373.04 368.72 373.05 369.39 373.05 370.06 373.06 370.74 373.06 371.42 373.07 372.09 373.07 372.77 373.07 373.45 373.08 374.13 373.08 374.81 373.08 375.49 373.09 376.17 373.09 376.85 373.1 377.54 373.1 378.22 373.11 378.91 373.11 379.6 373.11"/><polygon class="cls-3" points="250.2 150.49 344.51 128.16 339.59 82.74 245.72 109.56 250.2 150.49"/><path d="M454.38,177.07l0-.28c.64-.17.94-.42.91-.73l-.45-4.14c0-.17-.35-.16-1,0l0-.28,1.74-.49a.13.13,0,0,1,.15,0l2.51,3.94,1.51-5.07a.22.22,0,0,1,.15-.13l1.75-.49,0,.28q-1,.27-.93.51l.48,4.38c0,.18.34.18,1,0l0,.28-2.69.75,0-.28c.63-.18.94-.35.92-.53l-.51-4.64-1.72,5.73a.18.18,0,0,1-.14.12.13.13,0,0,1-.17,0l-2.78-4.38.47,4.34c0,.31.37.38,1,.21l0,.27-2.19.61" transform="translate(-171.19 -69.56)"/><path d="M465.84,174l-2.76-4.41a.34.34,0,0,0-.34-.11,2.87,2.87,0,0,0-.6.12l0-.28,2.57-.72,0,.28c-.51.14-.76.28-.74.42v0l2.25,3.59,1.28-4.35a.28.28,0,0,0,0-.1.26.26,0,0,0-.25-.23,1.16,1.16,0,0,0-.48,0l0-.28,2-.57,0,.28a1.86,1.86,0,0,0-.6.29.9.9,0,0,0-.35.47l-1.6,5.4a.21.21,0,0,1-.15.15l-.12,0q-.12,0-.15-.06" transform="translate(-171.19 -69.56)"/><path d="M471.38,171.48a2,2,0,0,0,.87.33,2.64,2.64,0,0,0,1-.08,2.72,2.72,0,0,0,.81-.37,2.85,2.85,0,0,0,.61-.59,2.46,2.46,0,0,0,.37-.72,2,2,0,0,0,.07-.76s0-.07.09-.09l.12,0c.05,0,.07,0,.07.05a2,2,0,0,1-.1.89,2.78,2.78,0,0,1-.46.84,3.11,3.11,0,0,1-.76.68,3,3,0,0,1-.93.43,3.35,3.35,0,0,1-1.32.12,2.78,2.78,0,0,1-1.13-.35,2.16,2.16,0,0,1-.81-.75,2.26,2.26,0,0,1-.38-1,2.86,2.86,0,0,1,.13-1.18,3.7,3.7,0,0,1,.61-1.14,4.23,4.23,0,0,1,1-.94,4.35,4.35,0,0,1,1.27-.6,2.66,2.66,0,0,1,1-.09,1.87,1.87,0,0,1,.84.29l.47-.81.07,0,.08,0s0,0,.05,0l0,0,.23,2.18a.07.07,0,0,1-.06.09l-.18.05s-.08,0-.09-.05a1.43,1.43,0,0,0-.16-.48,2.3,2.3,0,0,0-.35-.47,1.83,1.83,0,0,0-.44-.35,1.78,1.78,0,0,0-1.29-.1,3.11,3.11,0,0,0-1,.49,3.3,3.3,0,0,0-.76.78,2.56,2.56,0,0,0-.38,1,4.24,4.24,0,0,0,0,1.07,3.78,3.78,0,0,0,.24,1,1.73,1.73,0,0,0,.58.73" transform="translate(-171.19 -69.56)"/><line class="cls-7" x1="250.18" y1="114.73" x2="279.62" y2="106.54"/><path d="M455.42,186.17a1.08,1.08,0,0,1,.35-.87,3.32,3.32,0,0,1,1-.7,7.06,7.06,0,0,1,1.14-.43l0-.32a.77.77,0,0,0-.16-.41.88.88,0,0,0-.38-.27.85.85,0,0,0-.5,0,1.82,1.82,0,0,0-.9.48.34.34,0,0,1,.3,0,.33.33,0,0,1,.14.24.4.4,0,0,1-.1.3.53.53,0,0,1-.29.2.45.45,0,0,1-.33,0,.33.33,0,0,1-.16-.24.81.81,0,0,1,.37-.74,2.8,2.8,0,0,1,.95-.46,2.14,2.14,0,0,1,.76-.06,1.37,1.37,0,0,1,.67.22.71.71,0,0,1,.3.54l.2,1.78a.46.46,0,0,0,.1.27.22.22,0,0,0,.25.06.32.32,0,0,0,.22-.19.63.63,0,0,0,0-.3l-.06-.51.28-.08.05.51a.84.84,0,0,1-.33.71.91.91,0,0,1-.38.19.63.63,0,0,1-.49,0,.51.51,0,0,1-.27-.37,1.47,1.47,0,0,1-.45.61,1.76,1.76,0,0,1-.69.36,3.38,3.38,0,0,1-.7.1,1.11,1.11,0,0,1-.6-.13.54.54,0,0,1-.28-.45Zm.75-.19a.49.49,0,0,0,.29.41.82.82,0,0,0,.58,0,1.35,1.35,0,0,0,.88-.71.93.93,0,0,0,.09-.51l-.09-.82a3.29,3.29,0,0,0-.84.34,2.19,2.19,0,0,0-.69.57,1,1,0,0,0-.22.69" transform="translate(-171.19 -69.56)"/><path d="M461.76,185.3l-1.67-2.57a.44.44,0,0,0-.3-.11,3.1,3.1,0,0,0-.47.09l0-.28,1.95-.52,0,.28c-.34.09-.51.2-.49.33v0l1.29,2,.72-2.29a.36.36,0,0,0,0-.14.23.23,0,0,0-.17-.2.49.49,0,0,0-.32,0l0-.27,1.55-.42,0,.28a1.37,1.37,0,0,0-.5.24,1.06,1.06,0,0,0-.29.43l-1,3.05a.16.16,0,0,1-.13.12l-.07,0a.12.12,0,0,1-.15,0" transform="translate(-171.19 -69.56)"/><path d="M466.47,184.14a2.17,2.17,0,0,1-1.07,0,1.74,1.74,0,0,1-.82-.48,1.4,1.4,0,0,1-.37-.83,1.85,1.85,0,0,1,.15-1A2.73,2.73,0,0,1,465,181a2.37,2.37,0,0,1,1-.52,2.17,2.17,0,0,1,.77-.08,1.33,1.33,0,0,1,.56.2,1.23,1.23,0,0,1,.37.44,2,2,0,0,1,.18.62c0,.07,0,.12-.09.14l-2.72.72v.09a1.74,1.74,0,0,0,.44,1.06,1,1,0,0,0,1.08.2,1.35,1.35,0,0,0,.51-.25,1.46,1.46,0,0,0,.4-.42,1,1,0,0,0,.2-.48s0,0,0-.06a.07.07,0,0,1,.06,0l.08,0a.08.08,0,0,1,.11.08,1.65,1.65,0,0,1-.49.89,2.19,2.19,0,0,1-1,.55Zm-1.47-1.8,2.14-.57a1.94,1.94,0,0,0-.17-.58.94.94,0,0,0-.38-.43.79.79,0,0,0-.63,0,1.15,1.15,0,0,0-.76.64,1.8,1.8,0,0,0-.2,1" transform="translate(-171.19 -69.56)"/><path d="M468.55,183.5l0-.27a2.63,2.63,0,0,0,.53-.19q.21-.09.18-.27l-.24-2.2a.43.43,0,0,0-.1-.28.25.25,0,0,0-.24-.06,3.1,3.1,0,0,0-.44.09l0-.28,1.33-.45.09.79a1.94,1.94,0,0,1,.38-.69,1.26,1.26,0,0,1,.65-.4.87.87,0,0,1,.53,0,.38.38,0,0,1,.27.31.39.39,0,0,1-.1.3.52.52,0,0,1-.29.18.39.39,0,0,1-.32,0,.27.27,0,0,1-.15-.23.38.38,0,0,1,.15-.35l-.07,0a1,1,0,0,0-.59.4,1.78,1.78,0,0,0-.28.68,2.09,2.09,0,0,0,0,.7l.14,1.31c0,.18.34.18.95,0l0,.28-2.32.61" transform="translate(-171.19 -69.56)"/><path d="M472.31,181.69a1.09,1.09,0,0,1,.36-.9,3.55,3.55,0,0,1,1-.71,6.43,6.43,0,0,1,1.18-.45l0-.32a.8.8,0,0,0-.18-.42.77.77,0,0,0-.39-.27.92.92,0,0,0-.52,0,1.86,1.86,0,0,0-.93.49.37.37,0,0,1,.31,0,.3.3,0,0,1,.14.24.38.38,0,0,1-.1.31.57.57,0,0,1-.3.21.48.48,0,0,1-.34,0,.3.3,0,0,1-.16-.24.79.79,0,0,1,.38-.76,2.7,2.7,0,0,1,1-.47,2.09,2.09,0,0,1,.79-.07,1.48,1.48,0,0,1,.7.22.72.72,0,0,1,.31.55l.2,1.81a.48.48,0,0,0,.11.28.22.22,0,0,0,.25.06.31.31,0,0,0,.23-.2.65.65,0,0,0,0-.31l-.05-.52.28-.07.06.52a.75.75,0,0,1-.07.38.83.83,0,0,1-.28.34,1.2,1.2,0,0,1-.39.2.68.68,0,0,1-.51,0,.52.52,0,0,1-.28-.38,1.49,1.49,0,0,1-.47.62,1.77,1.77,0,0,1-.72.37,3,3,0,0,1-.73.11,1.17,1.17,0,0,1-.61-.12.55.55,0,0,1-.29-.46Zm.78-.21a.48.48,0,0,0,.3.42.93.93,0,0,0,.6,0,1.55,1.55,0,0,0,.54-.28,1.26,1.26,0,0,0,.37-.46,1,1,0,0,0,.1-.51l-.1-.85a4.22,4.22,0,0,0-.87.36,2.17,2.17,0,0,0-.71.58.93.93,0,0,0-.23.7" transform="translate(-171.19 -69.56)"/><path d="M477.13,181.89a.75.75,0,0,1,.2-.58,1.9,1.9,0,0,1,.55-.46.62.62,0,0,1-.32-.23.7.7,0,0,1-.14-.37,1.1,1.1,0,0,1,.21-.76.84.84,0,0,1-.54-.71.92.92,0,0,1,.08-.51,1.71,1.71,0,0,1,.32-.47,3.17,3.17,0,0,1,.49-.4,1.86,1.86,0,0,1,.56-.24,1.94,1.94,0,0,1,1.07,0,1.66,1.66,0,0,1,.44-.39,1.7,1.7,0,0,1,.55-.25.44.44,0,0,1,.36,0,.4.4,0,0,1,.16.27.35.35,0,0,1-.07.2.36.36,0,0,1-.19.13.29.29,0,0,1-.23,0,.19.19,0,0,1-.1-.16.26.26,0,0,1,.09-.24,1.7,1.7,0,0,0-.84.53.79.79,0,0,1,.32.28.73.73,0,0,1,.15.4,1.1,1.1,0,0,1-.16.69,1.88,1.88,0,0,1-.55.58,2.39,2.39,0,0,1-.74.35,2,2,0,0,1-1,0,.59.59,0,0,0-.1.38.44.44,0,0,0,.21.34.55.55,0,0,0,.44,0l.8-.21a5.54,5.54,0,0,1,1-.18,1.47,1.47,0,0,1,.81.15.79.79,0,0,1,.4.66.85.85,0,0,1-.29.68,2.81,2.81,0,0,1-.82.58,4.55,4.55,0,0,1-.92.34,3.87,3.87,0,0,1-.94.14,2.12,2.12,0,0,1-.89-.12.59.59,0,0,1-.42-.49Zm.53-.15a.47.47,0,0,0,.32.39,1.57,1.57,0,0,0,.67.11,3.2,3.2,0,0,0,.71-.1,4.42,4.42,0,0,0,.69-.27,2.17,2.17,0,0,0,.61-.44.66.66,0,0,0,.21-.53.46.46,0,0,0-.52-.43,4.37,4.37,0,0,0-1.14.17l-.8.21a1.2,1.2,0,0,0-.39.2.86.86,0,0,0-.27.33.64.64,0,0,0-.09.36Zm1.12-2.39a1,1,0,0,0,.72-1.21,1.18,1.18,0,0,0-.26-.65c-.13-.16-.36-.19-.67-.11a.92.92,0,0,0-.62.45,1.51,1.51,0,0,0-.1.75,1.62,1.62,0,0,0,.12.47.61.61,0,0,0,.28.29.85.85,0,0,0,.53,0" transform="translate(-171.19 -69.56)"/><path d="M484.05,179.49a2.21,2.21,0,0,1-1.11,0,1.55,1.55,0,0,1-.85-.49,1.37,1.37,0,0,1-.39-.84,1.9,1.9,0,0,1,.16-1,2.44,2.44,0,0,1,.65-.89,2.38,2.38,0,0,1,1-.54,2.11,2.11,0,0,1,.8-.08,1.15,1.15,0,0,1,1,.64,1.55,1.55,0,0,1,.18.63.11.11,0,0,1-.09.14l-2.83.76V178A1.79,1.79,0,0,0,483,179a1.07,1.07,0,0,0,1.13.21,1.63,1.63,0,0,0,.53-.26,1.86,1.86,0,0,0,.41-.43,1.06,1.06,0,0,0,.2-.49.16.16,0,0,1,0-.07.09.09,0,0,1,.06,0l.08,0c.07,0,.11,0,.11.08a1.56,1.56,0,0,1-.51.91,2.18,2.18,0,0,1-1,.57Zm-1.52-1.83,2.22-.59a2.06,2.06,0,0,0-.17-.6,1,1,0,0,0-.4-.43.83.83,0,0,0-.65,0,1.23,1.23,0,0,0-.8.66,1.77,1.77,0,0,0-.2,1" transform="translate(-171.19 -69.56)"/><line class="cls-8" x1="251.23" y1="124.27" x2="280.69" y2="116.41"/><path d="M457.11,195.75l-.19-1.74a.46.46,0,0,0-.11-.29.28.28,0,0,0-.23-.06,3.34,3.34,0,0,0-.43.09l0-.27,1.38-.46.28,2.56a1.55,1.55,0,0,0,.11.48.35.35,0,0,0,.25.2,1.47,1.47,0,0,0,.54-.06,1.14,1.14,0,0,0,.75-.55,1.4,1.4,0,0,0,.2-.88l-.16-1.42a.43.43,0,0,0-.1-.28.25.25,0,0,0-.22-.07l-.44.09,0-.27,1.38-.46.3,2.81a.46.46,0,0,0,.12.28.3.3,0,0,0,.23.06l.43-.09,0,.28-1.36.43-.07-.66a1.9,1.9,0,0,1-.43.6,1.53,1.53,0,0,1-.65.35,2,2,0,0,1-1.08,0,.75.75,0,0,1-.47-.7" transform="translate(-171.19 -69.56)"/><path d="M461.75,197.14l0-.27a3.39,3.39,0,0,0,.52-.18.28.28,0,0,0,.18-.27l-.42-3.83c0-.15-.08-.23-.21-.23a1.89,1.89,0,0,0-.55.08l0-.27,1.36-.45.06.49a2.48,2.48,0,0,1,.55-.52,2.31,2.31,0,0,1,.7-.31,1.89,1.89,0,0,1,1,0,1.6,1.6,0,0,1,.77.49,1.55,1.55,0,0,1,.35.83,1.87,1.87,0,0,1-.18,1,2.31,2.31,0,0,1-.68.85,2.58,2.58,0,0,1-1,.51,1.38,1.38,0,0,1-1.2-.18l.15,1.4c0,.11.09.16.22.16a2.6,2.6,0,0,0,.54-.08l0,.28-2.14.53Zm1.15-2.68a1,1,0,0,0,.51.36,1.1,1.1,0,0,0,.65,0,1.36,1.36,0,0,0,.56-.29,1.7,1.7,0,0,0,.38-.5,2.32,2.32,0,0,0,.19-.6,2,2,0,0,0,0-.54,1.9,1.9,0,0,0-.22-.66,1.37,1.37,0,0,0-.48-.53.86.86,0,0,0-.69-.08,1.72,1.72,0,0,0-.69.34,1.69,1.69,0,0,0-.44.57l.2,1.91" transform="translate(-171.19 -69.56)"/><path d="M466.94,195.84l0-.28a2.57,2.57,0,0,0,.52-.18q.21-.1.18-.27l-.42-3.85c0-.15-.08-.23-.21-.23a2,2,0,0,0-.56.08l0-.28,1.38-.45.06.5a2.14,2.14,0,0,1,.56-.52,2.07,2.07,0,0,1,.71-.32,1.8,1.8,0,0,1,1,0,1.58,1.58,0,0,1,.78.49,1.48,1.48,0,0,1,.35.83,1.72,1.72,0,0,1-.18,1,2.35,2.35,0,0,1-.69.86,2.77,2.77,0,0,1-1,.51,1.41,1.41,0,0,1-1.21-.18l.15,1.41c0,.11.09.16.23.16a2.44,2.44,0,0,0,.53-.08l0,.28-2.16.54Zm1.16-2.7a1,1,0,0,0,.51.36,1.14,1.14,0,0,0,.66,0,1.42,1.42,0,0,0,.57-.3,1.55,1.55,0,0,0,.38-.5,2.35,2.35,0,0,0,.2-.6,2.07,2.07,0,0,0,0-.55,1.8,1.8,0,0,0-.21-.66,1.39,1.39,0,0,0-.49-.53.88.88,0,0,0-.7-.08,1.62,1.62,0,0,0-.69.35,1.54,1.54,0,0,0-.45.57l.2,1.92" transform="translate(-171.19 -69.56)"/><path d="M474.4,192.43a2.09,2.09,0,0,1-1.08,0,1.69,1.69,0,0,1-.84-.49,1.48,1.48,0,0,1-.38-.84,2,2,0,0,1,.16-1,2.34,2.34,0,0,1,.64-.87,2.22,2.22,0,0,1,1-.51,2,2,0,0,1,.78-.08,1.21,1.21,0,0,1,.57.21,1.23,1.23,0,0,1,.37.44,1.55,1.55,0,0,1,.18.63.1.1,0,0,1-.09.13l-2.76.71v.08a1.77,1.77,0,0,0,.44,1.08,1.06,1.06,0,0,0,1.11.21,1.45,1.45,0,0,0,.52-.24,2,2,0,0,0,.4-.42,1.06,1.06,0,0,0,.2-.49l0-.05s0,0,.06,0l.08,0c.07,0,.11,0,.11.07a1.58,1.58,0,0,1-.5.9,2,2,0,0,1-1,.54Zm-1.49-1.82,2.17-.56a1.81,1.81,0,0,0-.17-.59.89.89,0,0,0-.38-.43.81.81,0,0,0-.64-.05,1.16,1.16,0,0,0-.78.64,1.77,1.77,0,0,0-.2,1" transform="translate(-171.19 -69.56)"/><path d="M476.52,191.81l0-.28a4.23,4.23,0,0,0,.54-.18.27.27,0,0,0,.18-.28l-.24-2.21a.49.49,0,0,0-.11-.29.31.31,0,0,0-.24-.06,2.54,2.54,0,0,0-.45.1l0-.28,1.36-.45.08.8a2.08,2.08,0,0,1,.39-.7,1.31,1.31,0,0,1,.66-.4.86.86,0,0,1,.55,0,.34.34,0,0,1,.26.31.4.4,0,0,1-.09.29.54.54,0,0,1-.3.19.43.43,0,0,1-.32,0,.26.26,0,0,1-.16-.23.4.4,0,0,1,.15-.35h-.06a1,1,0,0,0-.61.41,1.66,1.66,0,0,0-.28.68,2.41,2.41,0,0,0,0,.7l.15,1.32q0,.27,1,0l0,.28-2.35.6" transform="translate(-171.19 -69.56)"/><path d="M482.66,190.25l-.52-4.82a.46.46,0,0,0-.11-.29.25.25,0,0,0-.24-.06,3.55,3.55,0,0,0-.46.09l0-.28,1.42-.47L483,187a2.38,2.38,0,0,1,.35-.36,1.77,1.77,0,0,1,.45-.3,2.23,2.23,0,0,1,1.33-.26,1.73,1.73,0,0,1,.69.25,1.76,1.76,0,0,1,.5.48,1.41,1.41,0,0,1,.23.67,1.75,1.75,0,0,1-.18,1,2.52,2.52,0,0,1-.72.88,2.83,2.83,0,0,1-1.07.53,1.64,1.64,0,0,1-.73,0,1.3,1.3,0,0,1-.63-.28l-.27.58-.29.07Zm.62-1a1,1,0,0,0,.51.38,1.28,1.28,0,0,0,.7,0,1.65,1.65,0,0,0,.8-.45,1.6,1.6,0,0,0,.37-.72,2.5,2.5,0,0,0,0-.82,1.85,1.85,0,0,0-.33-1,.89.89,0,0,0-.3-.24,1.13,1.13,0,0,0-.38-.12,1.66,1.66,0,0,0-.44,0,1.82,1.82,0,0,0-.7.37,1.67,1.67,0,0,0-.48.59l.21,2" transform="translate(-171.19 -69.56)"/><path d="M489.81,188.53a2.41,2.41,0,0,1-1.13,0,1.69,1.69,0,0,1-.86-.47,1.32,1.32,0,0,1-.39-.84,1.82,1.82,0,0,1,.08-.76,2.29,2.29,0,0,1,.39-.74,2.57,2.57,0,0,1,.66-.61,2.76,2.76,0,0,1,.84-.37,2.21,2.21,0,0,1,1.14,0,1.64,1.64,0,0,1,.87.51,1.5,1.5,0,0,1,.38.87,1.7,1.7,0,0,1-.19,1,2.5,2.5,0,0,1-.73.87,2.72,2.72,0,0,1-1.06.53Zm0-.23a1.32,1.32,0,0,0,1-.74,2.69,2.69,0,0,0,.13-1.29,3.91,3.91,0,0,0-.12-.67.89.89,0,0,0-.3-.44.71.71,0,0,0-.3-.16,1.15,1.15,0,0,0-.37-.06,1.09,1.09,0,0,0-.4,0,1.64,1.64,0,0,0-.57.26,1.53,1.53,0,0,0-.43.45,1.3,1.3,0,0,0-.18.58,3.21,3.21,0,0,0,0,.68,3,3,0,0,0,.19.8,1.11,1.11,0,0,0,.46.52,1.19,1.19,0,0,0,.87,0" transform="translate(-171.19 -69.56)"/><path d="M493.24,186.56l-.2-1.82a.41.41,0,0,0-.11-.29.26.26,0,0,0-.25-.06,3.55,3.55,0,0,0-.46.09l0-.28,1.48-.49.29,2.67a1.93,1.93,0,0,0,.12.49.34.34,0,0,0,.27.2,1.33,1.33,0,0,0,.59-.06,1.25,1.25,0,0,0,.81-.58,1.4,1.4,0,0,0,.22-.92l-.16-1.48a.41.41,0,0,0-.11-.29.28.28,0,0,0-.24-.07c-.1,0-.26.05-.48.1l0-.28,1.5-.49.31,2.91a.44.44,0,0,0,.13.3.31.31,0,0,0,.24.06,2.86,2.86,0,0,0,.47-.1l0,.29-1.47.46-.07-.69a1.93,1.93,0,0,1-.47.63,1.64,1.64,0,0,1-.71.38,2.1,2.1,0,0,1-1.16,0,.74.74,0,0,1-.51-.71" transform="translate(-171.19 -69.56)"/><path d="M498.12,186.34l0-.29a3,3,0,0,0,.56-.19.26.26,0,0,0,.19-.28l-.24-2.26a.47.47,0,0,0-.12-.3.31.31,0,0,0-.24-.06,2.74,2.74,0,0,0-.48.1l0-.29,1.46-.48.09.82a1.76,1.76,0,0,1,.53-.74,2,2,0,0,1,.83-.45,1.56,1.56,0,0,1,1.08,0,.87.87,0,0,1,.45.75l.21,2c0,.12.1.18.26.17a3.12,3.12,0,0,0,.57-.1l0,.29-2.32.59,0-.29a3,3,0,0,0,.56-.19.28.28,0,0,0,.2-.28l-.22-2a1.3,1.3,0,0,0-.21-.63c-.11-.16-.32-.2-.61-.12a1.51,1.51,0,0,0-.93.64,1.4,1.4,0,0,0-.28,1l.18,1.63c0,.13.09.18.25.17a2.9,2.9,0,0,0,.56-.1l0,.29-2.3.59" transform="translate(-171.19 -69.56)"/><path d="M505.93,184.45a2.41,2.41,0,0,1-1.13,0A1.57,1.57,0,0,1,504,184a1.53,1.53,0,0,1-.38-.85,1.87,1.87,0,0,1,.2-1,2.66,2.66,0,0,1,.75-.9,2.91,2.91,0,0,1,1.11-.56,2,2,0,0,1,.72,0,1.31,1.31,0,0,1,.61.22l-.19-1.75a.41.41,0,0,0-.11-.29.28.28,0,0,0-.24-.07,4.16,4.16,0,0,0-.48.1l0-.29,1.5-.49.55,5.06a.46.46,0,0,0,.11.3.34.34,0,0,0,.25.06,3.22,3.22,0,0,0,.49-.1l0,.29-1.54.48-.06-.52a2.14,2.14,0,0,1-.58.54,2.5,2.5,0,0,1-.73.33Zm-1.13-.55a1.12,1.12,0,0,0,.52.32,1.38,1.38,0,0,0,.64,0,1.92,1.92,0,0,0,.76-.4,1.55,1.55,0,0,0,.48-.65l-.22-2a1.1,1.1,0,0,0-.34-.26,1.59,1.59,0,0,0-.44-.12,1.41,1.41,0,0,0-.49.05,1.6,1.6,0,0,0-.83.46,1.67,1.67,0,0,0-.38.75,2.64,2.64,0,0,0,0,.84,3.7,3.7,0,0,0,.1.57,1.26,1.26,0,0,0,.24.44" transform="translate(-171.19 -69.56)"/><line class="cls-9" x1="252.27" y1="133.81" x2="281.76" y2="126.27"/><path d="M457.59,206.78l0-.27a2.89,2.89,0,0,0,.5-.17q.21-.09.18-.27l-.45-4.15a.41.41,0,0,0-.11-.29.3.3,0,0,0-.23-.06l-.42.08,0-.27,1.34-.43.54,5c0,.12.09.17.24.17a3.06,3.06,0,0,0,.51-.09l0,.28-2.07.5" transform="translate(-171.19 -69.56)"/><path d="M462.18,205.75a2,2,0,0,1-1.07,0,1.63,1.63,0,0,1-.81-.46,1.38,1.38,0,0,1-.37-.83,1.85,1.85,0,0,1,.07-.73,2.3,2.3,0,0,1,.37-.71,2.4,2.4,0,0,1,.61-.58,2.58,2.58,0,0,1,.8-.34,1.94,1.94,0,0,1,1.07,0,1.56,1.56,0,0,1,.82.51,1.48,1.48,0,0,1,.36.85,1.71,1.71,0,0,1-.17,1,2.35,2.35,0,0,1-.68.83,2.46,2.46,0,0,1-1,.49Zm0-.22a1.23,1.23,0,0,0,1-.7,2.72,2.72,0,0,0,.12-1.24,4,4,0,0,0-.12-.66,1.11,1.11,0,0,0-.28-.43,1.06,1.06,0,0,0-.28-.15,1.53,1.53,0,0,0-.36-.07,1.25,1.25,0,0,0-.38,0,1.52,1.52,0,0,0-.53.25,1.59,1.59,0,0,0-.4.42,1.34,1.34,0,0,0-.17.56,3.66,3.66,0,0,0,0,.65,2.8,2.8,0,0,0,.18.78,1,1,0,0,0,.44.51,1,1,0,0,0,.81.05" transform="translate(-171.19 -69.56)"/><path d="M466.3,204.67l-1.52-2.62a.35.35,0,0,0-.26-.15,2.11,2.11,0,0,0-.47.07l0-.27,1.93-.48,0,.28c-.36.09-.54.2-.53.33s0,0,0,0,0,0,0,0l1.13,2,.58-2.08-.16-.25a.27.27,0,0,0-.25-.15,1.9,1.9,0,0,0-.46.07l0-.28,1.86-.45,0,.27q-.56.14-.54.33v.06l1.19,2,.63-2.26a.49.49,0,0,0,0-.11.28.28,0,0,0-.2-.23.61.61,0,0,0-.38,0l0-.28,1.6-.4,0,.28a1.12,1.12,0,0,0-.47.25.88.88,0,0,0-.26.42l-.84,3c0,.06-.06.1-.14.12h-.06a.13.13,0,0,1-.16,0l-1.19-2.05-.7,2.51a.19.19,0,0,1-.14.12l-.08,0c-.07,0-.13,0-.15-.05" transform="translate(-171.19 -69.56)"/><path d="M473.12,203.11a2.19,2.19,0,0,1-1.08,0,1.71,1.71,0,0,1-.84-.5,1.46,1.46,0,0,1-.37-.84,1.82,1.82,0,0,1,.15-1,2.41,2.41,0,0,1,1.6-1.36,2.25,2.25,0,0,1,.79-.07,1.34,1.34,0,0,1,.56.22,1.14,1.14,0,0,1,.37.44,1.55,1.55,0,0,1,.18.62.11.11,0,0,1-.09.14l-2.75.67v.09a1.83,1.83,0,0,0,.44,1.07,1.05,1.05,0,0,0,1.1.23,1.64,1.64,0,0,0,.52-.24,1.73,1.73,0,0,0,.4-.41,1.07,1.07,0,0,0,.2-.48l0-.06.06,0,.08,0c.07,0,.1,0,.11.08a1.55,1.55,0,0,1-.5.89,2.1,2.1,0,0,1-1,.53Zm-1.49-1.84,2.16-.52a1.78,1.78,0,0,0-.16-.6,1,1,0,0,0-.39-.43.83.83,0,0,0-.63-.06,1.12,1.12,0,0,0-.78.63,1.75,1.75,0,0,0-.2,1" transform="translate(-171.19 -69.56)"/><path d="M475.23,202.51l0-.28a2.89,2.89,0,0,0,.54-.17.25.25,0,0,0,.18-.28l-.24-2.2a.47.47,0,0,0-.1-.29.31.31,0,0,0-.24-.06l-.45.08,0-.27,1.35-.44.09.8a1.82,1.82,0,0,1,.38-.68,1.25,1.25,0,0,1,.66-.4.89.89,0,0,1,.54,0,.38.38,0,0,1,.27.32.37.37,0,0,1-.1.29.54.54,0,0,1-.3.18.43.43,0,0,1-.32,0,.27.27,0,0,1-.15-.23.35.35,0,0,1,.15-.35h-.07a1.09,1.09,0,0,0-.6.4,1.74,1.74,0,0,0-.28.67,2.43,2.43,0,0,0,0,.7l.15,1.32c0,.18.34.19,1,0l0,.28-2.34.57" transform="translate(-171.19 -69.56)"/><path d="M481.34,201l-.52-4.81a.41.41,0,0,0-.11-.29.28.28,0,0,0-.24-.07,3.48,3.48,0,0,0-.45.09l0-.28,1.41-.45.28,2.55a2.38,2.38,0,0,1,.35-.36,2.79,2.79,0,0,1,.44-.29,2.51,2.51,0,0,1,.5-.18,2.18,2.18,0,0,1,.83-.06,1.74,1.74,0,0,1,.69.26,1.64,1.64,0,0,1,.49.49,1.46,1.46,0,0,1,.24.66,1.76,1.76,0,0,1-.19,1,2.43,2.43,0,0,1-.71.86,2.68,2.68,0,0,1-1.06.51,1.69,1.69,0,0,1-.74,0,1.41,1.41,0,0,1-.62-.28l-.27.57-.29.07Zm.62-1a1,1,0,0,0,.51.39,1.27,1.27,0,0,0,.7,0A1.53,1.53,0,0,0,484,200a1.55,1.55,0,0,0,.37-.72,2.43,2.43,0,0,0,0-.81,1.85,1.85,0,0,0-.33-1,.89.89,0,0,0-.3-.24,1.13,1.13,0,0,0-.38-.12,1.25,1.25,0,0,0-.43,0,1.91,1.91,0,0,0-.71.36,1.64,1.64,0,0,0-.47.59l.21,1.94" transform="translate(-171.19 -69.56)"/><path d="M488.46,199.39a2.24,2.24,0,0,1-1.12,0,1.72,1.72,0,0,1-.87-.47,1.41,1.41,0,0,1-.38-.85,1.77,1.77,0,0,1,.08-.75,2.29,2.29,0,0,1,.39-.74,2.87,2.87,0,0,1,.65-.6,3.07,3.07,0,0,1,.85-.36,2.28,2.28,0,0,1,1.13,0,1.76,1.76,0,0,1,.86.52,1.6,1.6,0,0,1,.39.88,1.77,1.77,0,0,1-.2,1,2.36,2.36,0,0,1-.72.86,2.68,2.68,0,0,1-1.06.51Zm0-.22a1.31,1.31,0,0,0,1-.73,2.8,2.8,0,0,0,.13-1.29,3.18,3.18,0,0,0-.13-.67.92.92,0,0,0-.29-.44.86.86,0,0,0-.3-.16,1.51,1.51,0,0,0-.37-.07,1.87,1.87,0,0,0-.4,0,1.73,1.73,0,0,0-.57.26,1.6,1.6,0,0,0-.42.44,1.27,1.27,0,0,0-.18.58,3.12,3.12,0,0,0,0,.67,2.68,2.68,0,0,0,.19.8,1,1,0,0,0,.46.52,1.21,1.21,0,0,0,.86,0" transform="translate(-171.19 -69.56)"/><path d="M491.88,197.47l-.2-1.81a.5.5,0,0,0-.11-.3.32.32,0,0,0-.25-.06,3.55,3.55,0,0,0-.46.09l0-.28,1.48-.47.29,2.65a1.62,1.62,0,0,0,.11.5.37.37,0,0,0,.27.2,1.46,1.46,0,0,0,.59-.05,1.3,1.3,0,0,0,.81-.57,1.44,1.44,0,0,0,.22-.91l-.16-1.48a.46.46,0,0,0-.12-.29.26.26,0,0,0-.23-.07l-.48.09,0-.28,1.49-.47.32,2.91a.38.38,0,0,0,.12.29.33.33,0,0,0,.24.07l.47-.09,0,.28-1.47.44-.07-.68a1.86,1.86,0,0,1-.47.62,1.69,1.69,0,0,1-.7.37,2.14,2.14,0,0,1-1.15,0,.76.76,0,0,1-.51-.72" transform="translate(-171.19 -69.56)"/><path d="M496.73,197.3l0-.28a4.14,4.14,0,0,0,.56-.18c.14-.07.21-.16.2-.28l-.25-2.26a.46.46,0,0,0-.11-.29.29.29,0,0,0-.25-.07,3.63,3.63,0,0,0-.47.09l0-.28,1.45-.46.09.82a1.83,1.83,0,0,1,.52-.74,2.09,2.09,0,0,1,.83-.44,1.61,1.61,0,0,1,1.08,0,.89.89,0,0,1,.45.76l.21,2c0,.13.1.18.25.18a2.86,2.86,0,0,0,.57-.1l0,.29-2.31.56,0-.29a2.46,2.46,0,0,0,.56-.18.27.27,0,0,0,.2-.28l-.22-2a1.38,1.38,0,0,0-.21-.64q-.17-.22-.6-.12a1.54,1.54,0,0,0-.93.63,1.38,1.38,0,0,0-.28,1l.18,1.63c0,.12.09.18.25.17a2.78,2.78,0,0,0,.56-.09l0,.29-2.3.55" transform="translate(-171.19 -69.56)"/><path d="M504.52,195.51a2.28,2.28,0,0,1-1.13,0,1.64,1.64,0,0,1-.85-.52,1.53,1.53,0,0,1-.38-.85,1.85,1.85,0,0,1,.2-1,2.82,2.82,0,0,1,.74-.89,2.87,2.87,0,0,1,1.11-.54,2,2,0,0,1,.72-.05,1.44,1.44,0,0,1,.61.23l-.19-1.74a.42.42,0,0,0-.11-.3.32.32,0,0,0-.25-.06l-.47.09,0-.29,1.5-.48.54,5a.52.52,0,0,0,.12.3.31.31,0,0,0,.24.07c.1,0,.27-.05.49-.1l0,.29-1.53.46-.06-.52a2.31,2.31,0,0,1-1.3.85Zm-1.13-.56a1.06,1.06,0,0,0,.51.32,1.3,1.3,0,0,0,.65,0,1.9,1.9,0,0,0,.75-.38,1.64,1.64,0,0,0,.48-.65l-.22-2a1.07,1.07,0,0,0-.34-.25,1.32,1.32,0,0,0-.44-.13,1.7,1.7,0,0,0-.49,0,1.61,1.61,0,0,0-.82.46,1.59,1.59,0,0,0-.38.74,2.57,2.57,0,0,0,0,.83,3.61,3.61,0,0,0,.11.57,1.18,1.18,0,0,0,.24.44" transform="translate(-171.19 -69.56)"/><line class="cls-10" x1="253.31" y1="143.35" x2="282.84" y2="136.14"/><polygon class="cls-11" points="250.2 150.49 344.51 128.16 339.59 82.74 245.72 109.56 250.2 150.49"/></svg>